<svg version="1.1" xmlns="http://www.w3.org/2000/svg" xmlns:xlink="http://www.w3.org/1999/xlink" width="600" height="600" style="width: 600px; height: 600px;"><defs><clipPath id="OOhpvNSgqxUo"><path fill="none" stroke="none" d=" M 52 28 L 570 28 L 570 555 L 52 555 L 52 28 Z"/></clipPath><clipPath id="rHvPCfdktqsu"><path fill="none" stroke="none" d=" M 52 28 L 570 28 L 570 555 L 52 555 L 52 28 Z"/></clipPath></defs><g><g transform="scale(1,1) translate(0.5,0.5)"><rect fill="#FFFFFF" stroke="none" x="0" y="0" width="600" height="600"/><rect fill="#ffffff" stroke="none" x="0" y="0" width="600" height="600"/><rect fill="#FFFFFF" stroke="none" x="52" y="28" width="518" height="527"/><rect fill="#E8DDCB" stroke="none" x="52" y="28" width="518" height="527"/><g><rect fill="none" stroke="#e5e5e5" x="52" y="28" width="518" height="527" stroke-linejoin="bevel" stroke-miterlimit="10"/></g><g clip-path="url(#OOhpvNSgqxUo)"><g><g><path fill="none" stroke="#e5e5e5" paint-order="fill stroke markers" d=" M 99 555 L 99 28" stroke-linejoin="bevel" stroke-miterlimit="10"/><path fill="none" stroke="#e5e5e5" paint-order="fill stroke markers" d=" M 179 555 L 179 28" stroke-linejoin="bevel" stroke-miterlimit="10"/><path fill="none" stroke="#e5e5e5" paint-order="fill stroke markers" d=" M 258 555 L 258 28" stroke-linejoin="bevel" stroke-miterlimit="10"/><path fill="none" stroke="#e5e5e5" paint-order="fill stroke markers" d=" M 338 555 L 338 28" stroke-linejoin="bevel" stroke-miterlimit="10"/><path fill="none" stroke="#e5e5e5" paint-order="fill stroke markers" d=" M 417 555 L 417 28" stroke-linejoin="bevel" stroke-miterlimit="10"/><path fill="none" stroke="#e5e5e5" paint-order="fill stroke markers" d=" M 497 555 L 497 28" stroke-linejoin="bevel" stroke-miterlimit="10"/></g><g><path fill="none" stroke="#e5e5e5" paint-order="fill stroke markers" d=" M 52 531 L 570 531" stroke-linejoin="bevel" stroke-miterlimit="10"/><path fill="none" stroke="#e5e5e5" paint-order="fill stroke markers" d=" M 52 427 L 570 427" stroke-linejoin="bevel" stroke-miterlimit="10"/><path fill="none" stroke="#e5e5e5" paint-order="fill stroke markers" d=" M 52 322 L 570 322" stroke-linejoin="bevel" stroke-miterlimit="10"/><path fill="none" stroke="#e5e5e5" paint-order="fill stroke markers" d=" M 52 218 L 570 218" stroke-linejoin="bevel" stroke-miterlimit="10"/><path fill="none" stroke="#e5e5e5" paint-order="fill stroke markers" d=" M 52 114 L 570 114" stroke-linejoin="bevel" stroke-miterlimit="10"/></g><g><path fill="none" stroke="none"/><rect fill="#1f77b4" stroke="none" x="75.54545454545485" y="530.5235690235689" width="1.261923898709938e-10" height="0.5218855218855651"/><path fill="none" stroke="#1f77b4" paint-order="fill stroke markers" d=" M 75.54545454545485 530.5235690235689 L 75.54545454558104 530.5235690235689 L 75.54545454558104 531.0454545454545 L 75.54545454545485 531.0454545454545 L 75.54545454545485 530.5235690235689 Z" stroke-linejoin="bevel" stroke-miterlimit="10"/><rect fill="#1f77b4" stroke="none" x="142.117748517083" y="530.5235690235689" width="1.261923898709938e-10" height="0.5218855218855651"/><path fill="none" stroke="#1f77b4" paint-order="fill stroke markers" d=" M 142.117748517083 530.5235690235689 L 142.11774851720918 530.5235690235689 L 142.11774851720918 531.0454545454545 L 142.117748517083 531.0454545454545 L 142.117748517083 530.5235690235689 Z" stroke-linejoin="bevel" stroke-miterlimit="10"/><rect fill="#1f77b4" stroke="none" x="261.4248874678733" y="530.5235690235689" width="1.2641976354643703e-10" height="0.5218855218855651"/><path fill="none" stroke="#1f77b4" paint-order="fill stroke markers" d=" M 261.4248874678733 530.5235690235689 L 261.4248874679997 530.5235690235689 L 261.4248874679997 531.0454545454545 L 261.4248874678733 531.0454545454545 L 261.4248874678733 530.5235690235689 Z" stroke-linejoin="bevel" stroke-miterlimit="10"/><rect fill="#1f77b4" stroke="none" x="264.5846199149719" y="528.4360269360269" width="1.2641976354643703e-10" height="2.6094276094275983"/><path fill="none" stroke="#1f77b4" paint-order="fill stroke markers" d=" M 264.5846199149719 528.4360269360269 L 264.5846199150983 528.4360269360269 L 264.5846199150983 531.0454545454545 L 264.5846199149719 531.0454545454545 L 264.5846199149719 528.4360269360269 Z" stroke-linejoin="bevel" stroke-miterlimit="10"/><rect fill="#1f77b4" stroke="none" x="267.96226494462894" y="530.0016835016835" width="1.2641976354643703e-10" height="1.0437710437710166"/><path fill="none" stroke="#1f77b4" paint-order="fill stroke markers" d=" M 267.96226494462894 530.0016835016835 L 267.96226494475536 530.0016835016835 L 267.96226494475536 531.0454545454545 L 267.96226494462894 531.0454545454545 L 267.96226494462894 530.0016835016835 Z" stroke-linejoin="bevel" stroke-miterlimit="10"/><rect fill="#1f77b4" stroke="none" x="271.230953683007" y="514.3451178451178" width="1.261923898709938e-10" height="16.70033670033672"/><path fill="none" stroke="#1f77b4" paint-order="fill stroke markers" d=" M 271.230953683007 514.3451178451178 L 271.2309536831332 514.3451178451178 L 271.2309536831332 531.0454545454545 L 271.230953683007 531.0454545454545 L 271.230953683007 514.3451178451178 Z" stroke-linejoin="bevel" stroke-miterlimit="10"/><rect fill="#1f77b4" stroke="none" x="274.60859871266405" y="431.36531986531986" width="1.261923898709938e-10" height="99.68013468013464"/><path fill="none" stroke="#1f77b4" paint-order="fill stroke markers" d=" M 274.60859871266405 431.36531986531986 L 274.60859871279024 431.36531986531986 L 274.60859871279024 531.0454545454545 L 274.60859871266405 531.0454545454545 L 274.60859871266405 431.36531986531986 Z" stroke-linejoin="bevel" stroke-miterlimit="10"/><rect fill="#1f77b4" stroke="none" x="277.87728745104175" y="530.0016835016835" width="1.261923898709938e-10" height="1.0437710437710166"/><path fill="none" stroke="#1f77b4" paint-order="fill stroke markers" d=" M 277.87728745104175 530.0016835016835 L 277.87728745116794 530.0016835016835 L 277.87728745116794 531.0454545454545 L 277.87728745104175 531.0454545454545 L 277.87728745104175 530.0016835016835 Z" stroke-linejoin="bevel" stroke-miterlimit="10"/><rect fill="#1f77b4" stroke="none" x="281.2549324806988" y="528.4360269360269" width="1.261923898709938e-10" height="2.6094276094275983"/><path fill="none" stroke="#1f77b4" paint-order="fill stroke markers" d=" M 281.2549324806988 528.4360269360269 L 281.254932480825 528.4360269360269 L 281.254932480825 531.0454545454545 L 281.2549324806988 531.0454545454545 L 281.2549324806988 528.4360269360269 Z" stroke-linejoin="bevel" stroke-miterlimit="10"/><rect fill="#1f77b4" stroke="none" x="284.6325775103559" y="529.4797979797979" width="1.261923898709938e-10" height="1.5656565656565817"/><path fill="none" stroke="#1f77b4" paint-order="fill stroke markers" d=" M 284.6325775103559 529.4797979797979 L 284.63257751048207 529.4797979797979 L 284.63257751048207 531.0454545454545 L 284.6325775103559 531.0454545454545 L 284.6325775103559 529.4797979797979 Z" stroke-linejoin="bevel" stroke-miterlimit="10"/><rect fill="#1f77b4" stroke="none" x="287.9012662487338" y="528.9579124579125" width="1.261923898709938e-10" height="2.087542087542033"/><path fill="none" stroke="#1f77b4" paint-order="fill stroke markers" d=" M 287.9012662487338 528.9579124579125 L 287.90126624886 528.9579124579125 L 287.90126624886 531.0454545454545 L 287.9012662487338 531.0454545454545 L 287.9012662487338 528.9579124579125 Z" stroke-linejoin="bevel" stroke-miterlimit="10"/><rect fill="#1f77b4" stroke="none" x="291.27891127839086" y="530.0016835016835" width="1.261923898709938e-10" height="1.0437710437710166"/><path fill="none" stroke="#1f77b4" paint-order="fill stroke markers" d=" M 291.27891127839086 530.0016835016835 L 291.27891127851706 530.0016835016835 L 291.27891127851706 531.0454545454545 L 291.27891127839086 531.0454545454545 L 291.27891127839086 530.0016835016835 Z" stroke-linejoin="bevel" stroke-miterlimit="10"/><rect fill="#1f77b4" stroke="none" x="294.54760001676857" y="530.5235690235689" width="1.261923898709938e-10" height="0.5218855218855651"/><path fill="none" stroke="#1f77b4" paint-order="fill stroke markers" d=" M 294.54760001676857 530.5235690235689 L 294.54760001689476 530.5235690235689 L 294.54760001689476 531.0454545454545 L 294.54760001676857 531.0454545454545 L 294.54760001676857 530.5235690235689 Z" stroke-linejoin="bevel" stroke-miterlimit="10"/><rect fill="#1f77b4" stroke="none" x="307.7313112615591" y="530.5235690235689" width="1.2641976354643703e-10" height="0.5218855218855651"/><path fill="none" stroke="#1f77b4" paint-order="fill stroke markers" d=" M 307.7313112615591 530.5235690235689 L 307.7313112616855 530.5235690235689 L 307.7313112616855 531.0454545454545 L 307.7313112615591 531.0454545454545 L 307.7313112615591 530.5235690235689 Z" stroke-linejoin="bevel" stroke-miterlimit="10"/><rect fill="#1f77b4" stroke="none" x="314.3776450295942" y="480.9444444444444" width="1.261923898709938e-10" height="50.101010101010104"/><path fill="none" stroke="#1f77b4" paint-order="fill stroke markers" d=" M 314.3776450295942 480.9444444444444 L 314.3776450297204 480.9444444444444 L 314.3776450297204 531.0454545454545 L 314.3776450295942 531.0454545454545 L 314.3776450295942 480.9444444444444 Z" stroke-linejoin="bevel" stroke-miterlimit="10"/><rect fill="#1f77b4" stroke="none" x="317.6463337679718" y="530.5235690235689" width="1.2641976354643703e-10" height="0.5218855218855651"/><path fill="none" stroke="#1f77b4" paint-order="fill stroke markers" d=" M 317.6463337679718 530.5235690235689 L 317.6463337680982 530.5235690235689 L 317.6463337680982 531.0454545454545 L 317.6463337679718 531.0454545454545 L 317.6463337679718 530.5235690235689 Z" stroke-linejoin="bevel" stroke-miterlimit="10"/><rect fill="#1f77b4" stroke="none" x="324.401623827286" y="523.2171717171717" width="1.261923898709938e-10" height="7.828282828282795"/><path fill="none" stroke="#1f77b4" paint-order="fill stroke markers" d=" M 324.401623827286 523.2171717171717 L 324.4016238274122 523.2171717171717 L 324.4016238274122 531.0454545454545 L 324.401623827286 531.0454545454545 L 324.401623827286 523.2171717171717 Z" stroke-linejoin="bevel" stroke-miterlimit="10"/><rect fill="#1f77b4" stroke="none" x="331.047957595321" y="516.4326599326599" width="1.261923898709938e-10" height="14.612794612794573"/><path fill="none" stroke="#1f77b4" paint-order="fill stroke markers" d=" M 331.047957595321 516.4326599326599 L 331.0479575954472 516.4326599326599 L 331.0479575954472 531.0454545454545 L 331.047957595321 531.0454545454545 L 331.047957595321 516.4326599326599 Z" stroke-linejoin="bevel" stroke-miterlimit="10"/><rect fill="#1f77b4" stroke="none" x="334.3166463336987" y="524.7828282828283" width="1.261923898709938e-10" height="6.262626262626213"/><path fill="none" stroke="#1f77b4" paint-order="fill stroke markers" d=" M 334.3166463336987 524.7828282828283 L 334.3166463338249 524.7828282828283 L 334.3166463338249 531.0454545454545 L 334.3166463336987 531.0454545454545 L 334.3166463336987 524.7828282828283 Z" stroke-linejoin="bevel" stroke-miterlimit="10"/><rect fill="#1f77b4" stroke="none" x="337.6942913633558" y="526.8703703703703" width="1.261923898709938e-10" height="4.17508417508418"/><path fill="none" stroke="#1f77b4" paint-order="fill stroke markers" d=" M 337.6942913633558 526.8703703703703 L 337.69429136348197 526.8703703703703 L 337.69429136348197 531.0454545454545 L 337.6942913633558 531.0454545454545 L 337.6942913633558 526.8703703703703 Z" stroke-linejoin="bevel" stroke-miterlimit="10"/><rect fill="#1f77b4" stroke="none" x="341.07193639301306" y="528.4360269360269" width="1.261923898709938e-10" height="2.6094276094275983"/><path fill="none" stroke="#1f77b4" paint-order="fill stroke markers" d=" M 341.07193639301306 528.4360269360269 L 341.07193639313925 528.4360269360269 L 341.07193639313925 531.0454545454545 L 341.07193639301306 531.0454545454545 L 341.07193639301306 528.4360269360269 Z" stroke-linejoin="bevel" stroke-miterlimit="10"/><rect fill="#1f77b4" stroke="none" x="344.1227125488323" y="525.3047138047137" width="1.261923898709938e-10" height="5.740740740740762"/><path fill="none" stroke="#1f77b4" paint-order="fill stroke markers" d=" M 344.1227125488323 525.3047138047137 L 344.1227125489585 525.3047138047137 L 344.1227125489585 531.0454545454545 L 344.1227125488323 531.0454545454545 L 344.1227125488323 525.3047138047137 Z" stroke-linejoin="bevel" stroke-miterlimit="10"/><rect fill="#1f77b4" stroke="none" x="347.50035757848923" y="523.7390572390572" width="1.2641976354643703e-10" height="7.3063973063973435"/><path fill="none" stroke="#1f77b4" paint-order="fill stroke markers" d=" M 347.50035757848923 523.7390572390572 L 347.50035757861565 523.7390572390572 L 347.50035757861565 531.0454545454545 L 347.50035757848923 531.0454545454545 L 347.50035757848923 523.7390572390572 Z" stroke-linejoin="bevel" stroke-miterlimit="10"/><rect fill="#1f77b4" stroke="none" x="350.76904631686705" y="526.8703703703703" width="1.261923898709938e-10" height="4.17508417508418"/><path fill="none" stroke="#1f77b4" paint-order="fill stroke markers" d=" M 350.76904631686705 526.8703703703703 L 350.76904631699324 526.8703703703703 L 350.76904631699324 531.0454545454545 L 350.76904631686705 531.0454545454545 L 350.76904631686705 526.8703703703703 Z" stroke-linejoin="bevel" stroke-miterlimit="10"/><rect fill="#1f77b4" stroke="none" x="354.14669134652434" y="527.9141414141413" width="1.261923898709938e-10" height="3.1313131313131635"/><path fill="none" stroke="#1f77b4" paint-order="fill stroke markers" d=" M 354.14669134652434 527.9141414141413 L 354.1466913466505 527.9141414141413 L 354.1466913466505 531.0454545454545 L 354.14669134652434 531.0454545454545 L 354.14669134652434 527.9141414141413 Z" stroke-linejoin="bevel" stroke-miterlimit="10"/><rect fill="#1f77b4" stroke="none" x="357.4153800849019" y="522.1734006734006" width="1.2641976354643703e-10" height="8.872053872053925"/><path fill="none" stroke="#1f77b4" paint-order="fill stroke markers" d=" M 357.4153800849019 522.1734006734006 L 357.41538008502835 522.1734006734006 L 357.41538008502835 531.0454545454545 L 357.4153800849019 531.0454545454545 L 357.4153800849019 522.1734006734006 Z" stroke-linejoin="bevel" stroke-miterlimit="10"/><rect fill="#1f77b4" stroke="none" x="360.7930251145591" y="529.4797979797979" width="1.261923898709938e-10" height="1.5656565656565817"/><path fill="none" stroke="#1f77b4" paint-order="fill stroke markers" d=" M 360.7930251145591 529.4797979797979 L 360.7930251146853 529.4797979797979 L 360.7930251146853 531.0454545454545 L 360.7930251145591 531.0454545454545 L 360.7930251145591 529.4797979797979 Z" stroke-linejoin="bevel" stroke-miterlimit="10"/><rect fill="#1f77b4" stroke="none" x="364.17067014421616" y="521.6515151515151" width="1.261923898709938e-10" height="9.393939393939377"/><path fill="none" stroke="#1f77b4" paint-order="fill stroke markers" d=" M 364.17067014421616 521.6515151515151 L 364.17067014434235 521.6515151515151 L 364.17067014434235 531.0454545454545 L 364.17067014421616 531.0454545454545 L 364.17067014421616 521.6515151515151 Z" stroke-linejoin="bevel" stroke-miterlimit="10"/><rect fill="#1f77b4" stroke="none" x="367.4393588825941" y="525.8265993265993" width="1.261923898709938e-10" height="5.218855218855197"/><path fill="none" stroke="#1f77b4" paint-order="fill stroke markers" d=" M 367.4393588825941 525.8265993265993 L 367.4393588827203 525.8265993265993 L 367.4393588827203 531.0454545454545 L 367.4393588825941 531.0454545454545 L 367.4393588825941 525.8265993265993 Z" stroke-linejoin="bevel" stroke-miterlimit="10"/><rect fill="#1f77b4" stroke="none" x="370.81700391225115" y="523.7390572390572" width="1.261923898709938e-10" height="7.3063973063973435"/><path fill="none" stroke="#1f77b4" paint-order="fill stroke markers" d=" M 370.81700391225115 523.7390572390572 L 370.81700391237734 523.7390572390572 L 370.81700391237734 531.0454545454545 L 370.81700391225115 531.0454545454545 L 370.81700391225115 523.7390572390572 Z" stroke-linejoin="bevel" stroke-miterlimit="10"/><rect fill="#1f77b4" stroke="none" x="374.08569265062886" y="517.476430976431" width="1.261923898709938e-10" height="13.569023569023557"/><path fill="none" stroke="#1f77b4" paint-order="fill stroke markers" d=" M 374.08569265062886 517.476430976431 L 374.08569265075505 517.476430976431 L 374.08569265075505 531.0454545454545 L 374.08569265062886 531.0454545454545 L 374.08569265062886 517.476430976431 Z" stroke-linejoin="bevel" stroke-miterlimit="10"/><rect fill="#1f77b4" stroke="none" x="377.4633376802859" y="516.9545454545454" width="1.261923898709938e-10" height="14.090909090909122"/><path fill="none" stroke="#1f77b4" paint-order="fill stroke markers" d=" M 377.4633376802859 516.9545454545454 L 377.4633376804121 516.9545454545454 L 377.4633376804121 531.0454545454545 L 377.4633376802859 531.0454545454545 L 377.4633376802859 516.9545454545454 Z" stroke-linejoin="bevel" stroke-miterlimit="10"/><rect fill="#1f77b4" stroke="none" x="380.840982709943" y="525.3047138047137" width="1.261923898709938e-10" height="5.740740740740762"/><path fill="none" stroke="#1f77b4" paint-order="fill stroke markers" d=" M 380.840982709943 525.3047138047137 L 380.84098271006917 525.3047138047137 L 380.84098271006917 531.0454545454545 L 380.840982709943 531.0454545454545 L 380.840982709943 525.3047138047137 Z" stroke-linejoin="bevel" stroke-miterlimit="10"/><rect fill="#1f77b4" stroke="none" x="383.8917588657624" y="516.9545454545454" width="1.261923898709938e-10" height="14.090909090909122"/><path fill="none" stroke="#1f77b4" paint-order="fill stroke markers" d=" M 383.8917588657624 516.9545454545454 L 383.8917588658886 516.9545454545454 L 383.8917588658886 531.0454545454545 L 383.8917588657624 531.0454545454545 L 383.8917588657624 516.9545454545454 Z" stroke-linejoin="bevel" stroke-miterlimit="10"/><rect fill="#1f77b4" stroke="none" x="387.2694038954195" y="521.1296296296296" width="1.261923898709938e-10" height="9.915824915824942"/><path fill="none" stroke="#1f77b4" paint-order="fill stroke markers" d=" M 387.2694038954195 521.1296296296296 L 387.2694038955457 521.1296296296296 L 387.2694038955457 531.0454545454545 L 387.2694038954195 531.0454545454545 L 387.2694038954195 521.1296296296296 Z" stroke-linejoin="bevel" stroke-miterlimit="10"/><rect fill="#1f77b4" stroke="none" x="390.5380926337972" y="519.0420875420875" width="1.261923898709938e-10" height="12.003367003366975"/><path fill="none" stroke="#1f77b4" paint-order="fill stroke markers" d=" M 390.5380926337972 519.0420875420875 L 390.5380926339234 519.0420875420875 L 390.5380926339234 531.0454545454545 L 390.5380926337972 531.0454545454545 L 390.5380926337972 519.0420875420875 Z" stroke-linejoin="bevel" stroke-miterlimit="10"/><rect fill="#1f77b4" stroke="none" x="393.91573766345425" y="524.2609427609427" width="1.261923898709938e-10" height="6.784511784511778"/><path fill="none" stroke="#1f77b4" paint-order="fill stroke markers" d=" M 393.91573766345425 524.2609427609427 L 393.91573766358044 524.2609427609427 L 393.91573766358044 531.0454545454545 L 393.91573766345425 531.0454545454545 L 393.91573766345425 524.2609427609427 Z" stroke-linejoin="bevel" stroke-miterlimit="10"/><rect fill="#1f77b4" stroke="none" x="397.18442640183207" y="527.3922558922559" width="1.2641976354643703e-10" height="3.653198653198615"/><path fill="none" stroke="#1f77b4" paint-order="fill stroke markers" d=" M 397.18442640183207 527.3922558922559 L 397.1844264019585 527.3922558922559 L 397.1844264019585 531.0454545454545 L 397.18442640183207 531.0454545454545 L 397.18442640183207 527.3922558922559 Z" stroke-linejoin="bevel" stroke-miterlimit="10"/><rect fill="#1f77b4" stroke="none" x="400.56207143148913" y="528.4360269360269" width="1.2641976354643703e-10" height="2.6094276094275983"/><path fill="none" stroke="#1f77b4" paint-order="fill stroke markers" d=" M 400.56207143148913 528.4360269360269 L 400.56207143161555 528.4360269360269 L 400.56207143161555 531.0454545454545 L 400.56207143148913 531.0454545454545 L 400.56207143148913 528.4360269360269 Z" stroke-linejoin="bevel" stroke-miterlimit="10"/><rect fill="#1f77b4" stroke="none" x="403.9397164611463" y="521.1296296296296" width="1.261923898709938e-10" height="9.915824915824942"/><path fill="none" stroke="#1f77b4" paint-order="fill stroke markers" d=" M 403.9397164611463 521.1296296296296 L 403.9397164612725 521.1296296296296 L 403.9397164612725 531.0454545454545 L 403.9397164611463 531.0454545454545 L 403.9397164611463 521.1296296296296 Z" stroke-linejoin="bevel" stroke-miterlimit="10"/><rect fill="#1f77b4" stroke="none" x="407.20840519952424" y="521.6515151515151" width="1.261923898709938e-10" height="9.393939393939377"/><path fill="none" stroke="#1f77b4" paint-order="fill stroke markers" d=" M 407.20840519952424 521.6515151515151 L 407.20840519965043 521.6515151515151 L 407.20840519965043 531.0454545454545 L 407.20840519952424 531.0454545454545 L 407.20840519952424 521.6515151515151 Z" stroke-linejoin="bevel" stroke-miterlimit="10"/><rect fill="#1f77b4" stroke="none" x="410.5860502291813" y="510.1700336700336" width="1.261923898709938e-10" height="20.8754208754209"/><path fill="none" stroke="#1f77b4" paint-order="fill stroke markers" d=" M 410.5860502291813 510.1700336700336 L 410.5860502293075 510.1700336700336 L 410.5860502293075 531.0454545454545 L 410.5860502291813 531.0454545454545 L 410.5860502291813 510.1700336700336 Z" stroke-linejoin="bevel" stroke-miterlimit="10"/><rect fill="#1f77b4" stroke="none" x="413.854738967559" y="517.476430976431" width="1.261923898709938e-10" height="13.569023569023557"/><path fill="none" stroke="#1f77b4" paint-order="fill stroke markers" d=" M 413.854738967559 517.476430976431 L 413.8547389676852 517.476430976431 L 413.8547389676852 531.0454545454545 L 413.854738967559 531.0454545454545 L 413.854738967559 517.476430976431 Z" stroke-linejoin="bevel" stroke-miterlimit="10"/><rect fill="#1f77b4" stroke="none" x="417.23238399721606" y="527.3922558922559" width="1.261923898709938e-10" height="3.653198653198615"/><path fill="none" stroke="#1f77b4" paint-order="fill stroke markers" d=" M 417.23238399721606 527.3922558922559 L 417.23238399734225 527.3922558922559 L 417.23238399734225 531.0454545454545 L 417.23238399721606 531.0454545454545 L 417.23238399721606 527.3922558922559 Z" stroke-linejoin="bevel" stroke-miterlimit="10"/><rect fill="#1f77b4" stroke="none" x="420.6100290268731" y="523.2171717171717" width="1.261923898709938e-10" height="7.828282828282795"/><path fill="none" stroke="#1f77b4" paint-order="fill stroke markers" d=" M 420.6100290268731 523.2171717171717 L 420.6100290269993 523.2171717171717 L 420.6100290269993 531.0454545454545 L 420.6100290268731 531.0454545454545 L 420.6100290268731 523.2171717171717 Z" stroke-linejoin="bevel" stroke-miterlimit="10"/><rect fill="#1f77b4" stroke="none" x="423.7697614739717" y="522.6952861952861" width="1.261923898709938e-10" height="8.35016835016836"/><path fill="none" stroke="#1f77b4" paint-order="fill stroke markers" d=" M 423.7697614739717 522.6952861952861 L 423.7697614740979 522.6952861952861 L 423.7697614740979 531.0454545454545 L 423.7697614739717 531.0454545454545 L 423.7697614739717 522.6952861952861 Z" stroke-linejoin="bevel" stroke-miterlimit="10"/><rect fill="#1f77b4" stroke="none" x="427.14740650362876" y="518.520202020202" width="1.261923898709938e-10" height="12.52525252525254"/><path fill="none" stroke="#1f77b4" paint-order="fill stroke markers" d=" M 427.14740650362876 518.520202020202 L 427.14740650375495 518.520202020202 L 427.14740650375495 531.0454545454545 L 427.14740650362876 531.0454545454545 L 427.14740650362876 518.520202020202 Z" stroke-linejoin="bevel" stroke-miterlimit="10"/><rect fill="#1f77b4" stroke="none" x="430.4160952420067" y="517.9983164983165" width="1.261923898709938e-10" height="13.047138047137992"/><path fill="none" stroke="#1f77b4" paint-order="fill stroke markers" d=" M 430.4160952420067 517.9983164983165 L 430.4160952421329 517.9983164983165 L 430.4160952421329 531.0454545454545 L 430.4160952420067 531.0454545454545 L 430.4160952420067 517.9983164983165 Z" stroke-linejoin="bevel" stroke-miterlimit="10"/><rect fill="#1f77b4" stroke="none" x="433.79374027166364" y="517.9983164983165" width="1.2641976354643703e-10" height="13.047138047137992"/><path fill="none" stroke="#1f77b4" paint-order="fill stroke markers" d=" M 433.79374027166364 517.9983164983165 L 433.79374027179006 517.9983164983165 L 433.79374027179006 531.0454545454545 L 433.79374027166364 531.0454545454545 L 433.79374027166364 517.9983164983165 Z" stroke-linejoin="bevel" stroke-miterlimit="10"/><rect fill="#1f77b4" stroke="none" x="437.06242901004146" y="504.9511784511784" width="1.261923898709938e-10" height="26.094276094276097"/><path fill="none" stroke="#1f77b4" paint-order="fill stroke markers" d=" M 437.06242901004146 504.9511784511784 L 437.06242901016765 504.9511784511784 L 437.06242901016765 531.0454545454545 L 437.06242901004146 531.0454545454545 L 437.06242901004146 504.9511784511784 Z" stroke-linejoin="bevel" stroke-miterlimit="10"/><rect fill="#1f77b4" stroke="none" x="440.44007403969874" y="513.8232323232323" width="1.261923898709938e-10" height="17.22222222222217"/><path fill="none" stroke="#1f77b4" paint-order="fill stroke markers" d=" M 440.44007403969874 513.8232323232323 L 440.44007403982494 513.8232323232323 L 440.44007403982494 531.0454545454545 L 440.44007403969874 531.0454545454545 L 440.44007403969874 513.8232323232323 Z" stroke-linejoin="bevel" stroke-miterlimit="10"/><rect fill="#1f77b4" stroke="none" x="443.8177190693558" y="471.0286195286195" width="1.261923898709938e-10" height="60.01683501683499"/><path fill="none" stroke="#1f77b4" paint-order="fill stroke markers" d=" M 443.8177190693558 471.0286195286195 L 443.817719069482 471.0286195286195 L 443.817719069482 531.0454545454545 L 443.8177190693558 531.0454545454545 L 443.8177190693558 471.0286195286195 Z" stroke-linejoin="bevel" stroke-miterlimit="10"/><rect fill="#1f77b4" stroke="none" x="447.0864078077335" y="473.11616161616155" width="1.261923898709938e-10" height="57.929292929292956"/><path fill="none" stroke="#1f77b4" paint-order="fill stroke markers" d=" M 447.0864078077335 473.11616161616155 L 447.0864078078597 473.11616161616155 L 447.0864078078597 531.0454545454545 L 447.0864078077335 531.0454545454545 L 447.0864078077335 473.11616161616155 Z" stroke-linejoin="bevel" stroke-miterlimit="10"/><rect fill="#1f77b4" stroke="none" x="450.46405283739057" y="524.2609427609427" width="1.261923898709938e-10" height="6.784511784511778"/><path fill="none" stroke="#1f77b4" paint-order="fill stroke markers" d=" M 450.46405283739057 524.2609427609427 L 450.46405283751676 524.2609427609427 L 450.46405283751676 531.0454545454545 L 450.46405283739057 531.0454545454545 L 450.46405283739057 524.2609427609427 Z" stroke-linejoin="bevel" stroke-miterlimit="10"/><rect fill="#1f77b4" stroke="none" x="453.7327415757685" y="504.9511784511784" width="1.261923898709938e-10" height="26.094276094276097"/><path fill="none" stroke="#1f77b4" paint-order="fill stroke markers" d=" M 453.7327415757685 504.9511784511784 L 453.7327415758947 504.9511784511784 L 453.7327415758947 531.0454545454545 L 453.7327415757685 531.0454545454545 L 453.7327415757685 504.9511784511784 Z" stroke-linejoin="bevel" stroke-miterlimit="10"/><rect fill="#1f77b4" stroke="none" x="457.11038660542556" y="502.8636363636363" width="1.261923898709938e-10" height="28.181818181818187"/><path fill="none" stroke="#1f77b4" paint-order="fill stroke markers" d=" M 457.11038660542556 502.8636363636363 L 457.11038660555175 502.8636363636363 L 457.11038660555175 531.0454545454545 L 457.11038660542556 531.0454545454545 L 457.11038660542556 502.8636363636363 Z" stroke-linejoin="bevel" stroke-miterlimit="10"/><rect fill="#1f77b4" stroke="none" x="460.4880316350826" y="485.6414141414141" width="1.261923898709938e-10" height="45.404040404040416"/><path fill="none" stroke="#1f77b4" paint-order="fill stroke markers" d=" M 460.4880316350826 485.6414141414141 L 460.4880316352088 485.6414141414141 L 460.4880316352088 531.0454545454545 L 460.4880316350826 531.0454545454545 L 460.4880316350826 485.6414141414141 Z" stroke-linejoin="bevel" stroke-miterlimit="10"/><rect fill="#1f77b4" stroke="none" x="463.53880779090184" y="518.520202020202" width="1.261923898709938e-10" height="12.52525252525254"/><path fill="none" stroke="#1f77b4" paint-order="fill stroke markers" d=" M 463.53880779090184 518.520202020202 L 463.53880779102803 518.520202020202 L 463.53880779102803 531.0454545454545 L 463.53880779090184 531.0454545454545 L 463.53880779090184 518.520202020202 Z" stroke-linejoin="bevel" stroke-miterlimit="10"/><rect fill="#1f77b4" stroke="none" x="466.9164528205589" y="489.81649831649827" width="1.261923898709938e-10" height="41.228956228956235"/><path fill="none" stroke="#1f77b4" paint-order="fill stroke markers" d=" M 466.9164528205589 489.81649831649827 L 466.9164528206851 489.81649831649827 L 466.9164528206851 531.0454545454545 L 466.9164528205589 531.0454545454545 L 466.9164528205589 489.81649831649827 Z" stroke-linejoin="bevel" stroke-miterlimit="10"/><rect fill="#1f77b4" stroke="none" x="470.18514155893683" y="416.75252525252523" width="1.261923898709938e-10" height="114.29292929292927"/><path fill="none" stroke="#1f77b4" paint-order="fill stroke markers" d=" M 470.18514155893683 416.75252525252523 L 470.185141559063 416.75252525252523 L 470.185141559063 531.0454545454545 L 470.18514155893683 531.0454545454545 L 470.18514155893683 416.75252525252523 Z" stroke-linejoin="bevel" stroke-miterlimit="10"/><rect fill="#1f77b4" stroke="none" x="473.5627865885939" y="494.51346801346796" width="1.261923898709938e-10" height="36.53198653198655"/><path fill="none" stroke="#1f77b4" paint-order="fill stroke markers" d=" M 473.5627865885939 494.51346801346796 L 473.5627865887201 494.51346801346796 L 473.5627865887201 531.0454545454545 L 473.5627865885939 531.0454545454545 L 473.5627865885939 494.51346801346796 Z" stroke-linejoin="bevel" stroke-miterlimit="10"/><rect fill="#1f77b4" stroke="none" x="476.8314753269716" y="497.1228956228956" width="1.261923898709938e-10" height="33.92255892255889"/><path fill="none" stroke="#1f77b4" paint-order="fill stroke markers" d=" M 476.8314753269716 497.1228956228956 L 476.8314753270978 497.1228956228956 L 476.8314753270978 531.0454545454545 L 476.8314753269716 531.0454545454545 L 476.8314753269716 497.1228956228956 Z" stroke-linejoin="bevel" stroke-miterlimit="10"/><rect fill="#1f77b4" stroke="none" x="480.20912035662866" y="90.57407407407408" width="1.261923898709938e-10" height="440.4713804713804"/><path fill="none" stroke="#1f77b4" paint-order="fill stroke markers" d=" M 480.20912035662866 90.57407407407408 L 480.20912035675485 90.57407407407408 L 480.20912035675485 531.0454545454545 L 480.20912035662866 531.0454545454545 L 480.20912035662866 90.57407407407408 Z" stroke-linejoin="bevel" stroke-miterlimit="10"/><rect fill="#1f77b4" stroke="none" x="483.58676538628595" y="436.06228956228955" width="1.261923898709938e-10" height="94.98316498316495"/><path fill="none" stroke="#1f77b4" paint-order="fill stroke markers" d=" M 483.58676538628595 436.06228956228955 L 483.58676538641214 436.06228956228955 L 483.58676538641214 531.0454545454545 L 483.58676538628595 531.0454545454545 L 483.58676538628595 436.06228956228955 Z" stroke-linejoin="bevel" stroke-miterlimit="10"/><rect fill="#1f77b4" stroke="none" x="486.85545412466354" y="499.7323232323232" width="1.2641976354643703e-10" height="31.313131313131294"/><path fill="none" stroke="#1f77b4" paint-order="fill stroke markers" d=" M 486.85545412466354 499.7323232323232 L 486.85545412478996 499.7323232323232 L 486.85545412478996 531.0454545454545 L 486.85545412466354 531.0454545454545 L 486.85545412466354 499.7323232323232 Z" stroke-linejoin="bevel" stroke-miterlimit="10"/><rect fill="#1f77b4" stroke="none" x="490.2330991543207" y="498.68855218855214" width="1.261923898709938e-10" height="32.35690235690237"/><path fill="none" stroke="#1f77b4" paint-order="fill stroke markers" d=" M 490.2330991543207 498.68855218855214 L 490.2330991544469 498.68855218855214 L 490.2330991544469 531.0454545454545 L 490.2330991543207 531.0454545454545 L 490.2330991543207 498.68855218855214 Z" stroke-linejoin="bevel" stroke-miterlimit="10"/><rect fill="#1f77b4" stroke="none" x="493.50178789269864" y="435.54040404040404" width="1.261923898709938e-10" height="95.50505050505046"/><path fill="none" stroke="#1f77b4" paint-order="fill stroke markers" d=" M 493.50178789269864 435.54040404040404 L 493.50178789282484 435.54040404040404 L 493.50178789282484 531.0454545454545 L 493.50178789269864 531.0454545454545 L 493.50178789269864 435.54040404040404 Z" stroke-linejoin="bevel" stroke-miterlimit="10"/><rect fill="#1f77b4" stroke="none" x="496.8794329223557" y="449.6313131313131" width="1.261923898709938e-10" height="81.4141414141414"/><path fill="none" stroke="#1f77b4" paint-order="fill stroke markers" d=" M 496.8794329223557 449.6313131313131 L 496.8794329224819 449.6313131313131 L 496.8794329224819 531.0454545454545 L 496.8794329223557 531.0454545454545 L 496.8794329223557 449.6313131313131 Z" stroke-linejoin="bevel" stroke-miterlimit="10"/><rect fill="#1f77b4" stroke="none" x="500.25707795201276" y="448.58754208754203" width="1.261923898709938e-10" height="82.45791245791247"/><path fill="none" stroke="#1f77b4" paint-order="fill stroke markers" d=" M 500.25707795201276 448.58754208754203 L 500.25707795213896 448.58754208754203 L 500.25707795213896 531.0454545454545 L 500.25707795201276 531.0454545454545 L 500.25707795201276 448.58754208754203 Z" stroke-linejoin="bevel" stroke-miterlimit="10"/><rect fill="#1f77b4" stroke="none" x="503.307854107832" y="252.35858585858585" width="1.261923898709938e-10" height="278.68686868686865"/><path fill="none" stroke="#1f77b4" paint-order="fill stroke markers" d=" M 503.307854107832 252.35858585858585 L 503.3078541079582 252.35858585858585 L 503.3078541079582 531.0454545454545 L 503.307854107832 531.0454545454545 L 503.307854107832 252.35858585858585 Z" stroke-linejoin="bevel" stroke-miterlimit="10"/><rect fill="#1f77b4" stroke="none" x="506.68549913748905" y="217.3922558922559" width="1.261923898709938e-10" height="313.6531986531986"/><path fill="none" stroke="#1f77b4" paint-order="fill stroke markers" d=" M 506.68549913748905 217.3922558922559 L 506.68549913761524 217.3922558922559 L 506.68549913761524 531.0454545454545 L 506.68549913748905 531.0454545454545 L 506.68549913748905 217.3922558922559 Z" stroke-linejoin="bevel" stroke-miterlimit="10"/><rect fill="#1f77b4" stroke="none" x="509.954187875867" y="163.6380471380471" width="1.261923898709938e-10" height="367.4074074074074"/><path fill="none" stroke="#1f77b4" paint-order="fill stroke markers" d=" M 509.954187875867 163.6380471380471 L 509.95418787599317 163.6380471380471 L 509.95418787599317 531.0454545454545 L 509.954187875867 531.0454545454545 L 509.954187875867 163.6380471380471 Z" stroke-linejoin="bevel" stroke-miterlimit="10"/><rect fill="#1f77b4" stroke="none" x="513.331832905524" y="125.01851851851853" width="1.261923898709938e-10" height="406.02693602693597"/><path fill="none" stroke="#1f77b4" paint-order="fill stroke markers" d=" M 513.331832905524 125.01851851851853 L 513.3318329056502 125.01851851851853 L 513.3318329056502 531.0454545454545 L 513.331832905524 531.0454545454545 L 513.331832905524 125.01851851851853 Z" stroke-linejoin="bevel" stroke-miterlimit="10"/><rect fill="#1f77b4" stroke="none" x="516.6005216439017" y="115.6245791245791" width="1.261923898709938e-10" height="415.4208754208754"/><path fill="none" stroke="#1f77b4" paint-order="fill stroke markers" d=" M 516.6005216439017 115.6245791245791 L 516.6005216440279 115.6245791245791 L 516.6005216440279 531.0454545454545 L 516.6005216439017 531.0454545454545 L 516.6005216439017 115.6245791245791 Z" stroke-linejoin="bevel" stroke-miterlimit="10"/><rect fill="#1f77b4" stroke="none" x="519.9781666735588" y="237.22390572390572" width="1.261923898709938e-10" height="293.8215488215488"/><path fill="none" stroke="#1f77b4" paint-order="fill stroke markers" d=" M 519.9781666735588 237.22390572390572 L 519.978166673685 237.22390572390572 L 519.978166673685 531.0454545454545 L 519.9781666735588 531.0454545454545 L 519.9781666735588 237.22390572390572 Z" stroke-linejoin="bevel" stroke-miterlimit="10"/><rect fill="#1f77b4" stroke="none" x="523.3558117032159" y="293.58754208754203" width="1.261923898709938e-10" height="237.45791245791247"/><path fill="none" stroke="#1f77b4" paint-order="fill stroke markers" d=" M 523.3558117032159 293.58754208754203 L 523.355811703342 293.58754208754203 L 523.355811703342 531.0454545454545 L 523.3558117032159 531.0454545454545 L 523.3558117032159 293.58754208754203 Z" stroke-linejoin="bevel" stroke-miterlimit="10"/><rect fill="#1f77b4" stroke="none" x="526.6245004415937" y="484.5976430976431" width="1.2641976354643703e-10" height="46.44781144781143"/><path fill="none" stroke="#1f77b4" paint-order="fill stroke markers" d=" M 526.6245004415937 484.5976430976431 L 526.6245004417201 484.5976430976431 L 526.6245004417201 531.0454545454545 L 526.6245004415937 531.0454545454545 L 526.6245004415937 484.5976430976431 Z" stroke-linejoin="bevel" stroke-miterlimit="10"/><rect fill="#1f77b4" stroke="none" x="530.0021454712507" y="354.64814814814815" width="1.2641976354643703e-10" height="176.39730639730635"/><path fill="none" stroke="#1f77b4" paint-order="fill stroke markers" d=" M 530.0021454712507 354.64814814814815 L 530.0021454713772 354.64814814814815 L 530.0021454713772 531.0454545454545 L 530.0021454712507 531.0454545454545 L 530.0021454712507 354.64814814814815 Z" stroke-linejoin="bevel" stroke-miterlimit="10"/><rect fill="#1f77b4" stroke="none" x="533.2708342096288" y="295.6750841750842" width="1.261923898709938e-10" height="235.37037037037032"/><path fill="none" stroke="#1f77b4" paint-order="fill stroke markers" d=" M 533.2708342096288 295.6750841750842 L 533.270834209755 295.6750841750842 L 533.270834209755 531.0454545454545 L 533.2708342096288 531.0454545454545 L 533.2708342096288 295.6750841750842 Z" stroke-linejoin="bevel" stroke-miterlimit="10"/><rect fill="#1f77b4" stroke="none" x="536.6484792392858" y="330.11952861952864" width="1.261923898709938e-10" height="200.92592592592587"/><path fill="none" stroke="#1f77b4" paint-order="fill stroke markers" d=" M 536.6484792392858 330.11952861952864 L 536.648479239412 330.11952861952864 L 536.648479239412 531.0454545454545 L 536.6484792392858 531.0454545454545 L 536.6484792392858 330.11952861952864 Z" stroke-linejoin="bevel" stroke-miterlimit="10"/><rect fill="#1f77b4" stroke="none" x="540.0261242689429" y="51.95454545454544" width="1.261923898709938e-10" height="479.09090909090907"/><path fill="none" stroke="#1f77b4" paint-order="fill stroke markers" d=" M 540.0261242689429 51.95454545454544 L 540.0261242690691 51.95454545454544 L 540.0261242690691 531.0454545454545 L 540.0261242689429 531.0454545454545 L 540.0261242689429 51.95454545454544 Z" stroke-linejoin="bevel" stroke-miterlimit="10"/><rect fill="#1f77b4" stroke="none" x="543.076900424762" y="388.0488215488215" width="1.2641976354643703e-10" height="142.99663299663302"/><path fill="none" stroke="#1f77b4" paint-order="fill stroke markers" d=" M 543.076900424762 388.0488215488215 L 543.0769004248884 388.0488215488215 L 543.0769004248884 531.0454545454545 L 543.076900424762 531.0454545454545 L 543.076900424762 388.0488215488215 Z" stroke-linejoin="bevel" stroke-miterlimit="10"/><rect fill="#1f77b4" stroke="none" x="546.4545454544192" y="337.42592592592587" width="1.261923898709938e-10" height="193.61952861952864"/><path fill="none" stroke="#1f77b4" paint-order="fill stroke markers" d=" M 546.4545454544192 337.42592592592587 L 546.4545454545454 337.42592592592587 L 546.4545454545454 531.0454545454545 L 546.4545454544192 531.0454545454545 L 546.4545454544192 337.42592592592587 Z" stroke-linejoin="bevel" stroke-miterlimit="10"/></g></g></g><g><g fill="#444444"><path fill="" stroke="none" d=""/><g transform="translate(52,23)"><path fill="none" stroke="none"/><text fill="" stroke="none" font-family="helvetica" font-size="10pt" font-style="normal" font-weight="bold" text-decoration="normal" x="0" y="0" text-anchor="start" dominant-baseline="text-after-edge">Pics per month</text></g></g></g><g><g fill="#444444"><path fill="none" stroke="black" paint-order="fill stroke markers" d=" M 52 555 L 570 555" stroke-linejoin="bevel" stroke-miterlimit="10"/><path fill="none" stroke="black" paint-order="fill stroke markers" d=" M 99 561 L 99 553" stroke-linejoin="bevel" stroke-miterlimit="10"/><path fill="none" stroke="black" paint-order="fill stroke markers" d=" M 179 561 L 179 553" stroke-linejoin="bevel" stroke-miterlimit="10"/><path fill="none" stroke="black" paint-order="fill stroke markers" d=" M 258 561 L 258 553" stroke-linejoin="bevel" stroke-miterlimit="10"/><path fill="none" stroke="black" paint-order="fill stroke markers" d=" M 338 561 L 338 553" stroke-linejoin="bevel" stroke-miterlimit="10"/><path fill="none" stroke="black" paint-order="fill stroke markers" d=" M 417 561 L 417 553" stroke-linejoin="bevel" stroke-miterlimit="10"/><path fill="" stroke="black" paint-order="fill stroke markers" d=" M 497 561 L 497 553" stroke-linejoin="bevel" stroke-miterlimit="10"/><g transform="translate(99,566) rotate(0,0,0)"><text fill="" stroke="none" font-family="helvetica" font-size="8pt" font-style="normal" font-weight="normal" text-decoration="normal" x="0" y="0" text-anchor="middle" dominant-baseline="hanging">2008</text><g transform="rotate(0,0,0) translate(-99,-566) translate(179,566) rotate(0,0,0)"><text fill="" stroke="none" font-family="helvetica" font-size="8pt" font-style="normal" font-weight="normal" text-decoration="normal" x="0" y="0" text-anchor="middle" dominant-baseline="hanging">2010</text><g transform="rotate(0,0,0) translate(-179,-566) translate(258,566) rotate(0,0,0)"><text fill="" stroke="none" font-family="helvetica" font-size="8pt" font-style="normal" font-weight="normal" text-decoration="normal" x="0" y="0" text-anchor="middle" dominant-baseline="hanging">2012</text><g transform="rotate(0,0,0) translate(-258,-566) translate(338,566) rotate(0,0,0)"><text fill="" stroke="none" font-family="helvetica" font-size="8pt" font-style="normal" font-weight="normal" text-decoration="normal" x="0" y="0" text-anchor="middle" dominant-baseline="hanging">2014</text><g transform="rotate(0,0,0) translate(-338,-566) translate(417,566) rotate(0,0,0)"><text fill="" stroke="none" font-family="helvetica" font-size="8pt" font-style="normal" font-weight="normal" text-decoration="normal" x="0" y="0" text-anchor="middle" dominant-baseline="hanging">2016</text><g transform="rotate(0,0,0) translate(-417,-566) translate(497,566) rotate(0,0,0)"><text fill="" stroke="none" font-family="helvetica" font-size="8pt" font-style="normal" font-weight="normal" text-decoration="normal" x="0" y="0" text-anchor="middle" dominant-baseline="hanging">2018</text><g transform="rotate(0,0,0) translate(-497,-566) translate(311,584) rotate(0,0,0)"><text fill="" stroke="none" font-family="helvetica" font-size="10pt" font-style="italic" font-weight="normal" text-decoration="normal" x="0" y="0" text-anchor="middle" dominant-baseline="hanging">Time</text><g transform="rotate(0,0,0) translate(-311,-584)"/></g></g></g></g></g></g></g></g><g fill="#444444"><path fill="none" stroke="black" paint-order="fill stroke markers" d=" M 52 555 L 52 28" stroke-linejoin="bevel" stroke-miterlimit="10"/><path fill="none" stroke="black" paint-order="fill stroke markers" d=" M 46 531 L 54 531" stroke-linejoin="bevel" stroke-miterlimit="10"/><path fill="none" stroke="black" paint-order="fill stroke markers" d=" M 46 427 L 54 427" stroke-linejoin="bevel" stroke-miterlimit="10"/><path fill="none" stroke="black" paint-order="fill stroke markers" d=" M 46 322 L 54 322" stroke-linejoin="bevel" stroke-miterlimit="10"/><path fill="none" stroke="black" paint-order="fill stroke markers" d=" M 46 218 L 54 218" stroke-linejoin="bevel" stroke-miterlimit="10"/><path fill="none" stroke="black" paint-order="fill stroke markers" d=" M 46 114 L 54 114" stroke-linejoin="bevel" stroke-miterlimit="10"/><path fill="none" stroke="black" paint-order="fill stroke markers" d=" M 48 552 L 52 552" stroke-linejoin="bevel" stroke-miterlimit="10"/><path fill="none" stroke="black" paint-order="fill stroke markers" d=" M 48 531 L 52 531" stroke-linejoin="bevel" stroke-miterlimit="10"/><path fill="none" stroke="black" paint-order="fill stroke markers" d=" M 48 510 L 52 510" stroke-linejoin="bevel" stroke-miterlimit="10"/><path fill="none" stroke="black" paint-order="fill stroke markers" d=" M 48 489 L 52 489" stroke-linejoin="bevel" stroke-miterlimit="10"/><path fill="none" stroke="black" paint-order="fill stroke markers" d=" M 48 468 L 52 468" stroke-linejoin="bevel" stroke-miterlimit="10"/><path fill="none" stroke="black" paint-order="fill stroke markers" d=" M 48 448 L 52 448" stroke-linejoin="bevel" stroke-miterlimit="10"/><path fill="none" stroke="black" paint-order="fill stroke markers" d=" M 48 427 L 52 427" stroke-linejoin="bevel" stroke-miterlimit="10"/><path fill="none" stroke="black" paint-order="fill stroke markers" d=" M 48 406 L 52 406" stroke-linejoin="bevel" stroke-miterlimit="10"/><path fill="none" stroke="black" paint-order="fill stroke markers" d=" M 48 385 L 52 385" stroke-linejoin="bevel" stroke-miterlimit="10"/><path fill="none" stroke="black" paint-order="fill stroke markers" d=" M 48 364 L 52 364" stroke-linejoin="bevel" stroke-miterlimit="10"/><path fill="none" stroke="black" paint-order="fill stroke markers" d=" M 48 343 L 52 343" stroke-linejoin="bevel" stroke-miterlimit="10"/><path fill="none" stroke="black" paint-order="fill stroke markers" d=" M 48 322 L 52 322" stroke-linejoin="bevel" stroke-miterlimit="10"/><path fill="none" stroke="black" paint-order="fill stroke markers" d=" M 48 301 L 52 301" stroke-linejoin="bevel" stroke-miterlimit="10"/><path fill="none" stroke="black" paint-order="fill stroke markers" d=" M 48 281 L 52 281" stroke-linejoin="bevel" stroke-miterlimit="10"/><path fill="none" stroke="black" paint-order="fill stroke markers" d=" M 48 260 L 52 260" stroke-linejoin="bevel" stroke-miterlimit="10"/><path fill="none" stroke="black" paint-order="fill stroke markers" d=" M 48 239 L 52 239" stroke-linejoin="bevel" stroke-miterlimit="10"/><path fill="none" stroke="black" paint-order="fill stroke markers" d=" M 48 218 L 52 218" stroke-linejoin="bevel" stroke-miterlimit="10"/><path fill="none" stroke="black" paint-order="fill stroke markers" d=" M 48 197 L 52 197" stroke-linejoin="bevel" stroke-miterlimit="10"/><path fill="none" stroke="black" paint-order="fill stroke markers" d=" M 48 176 L 52 176" stroke-linejoin="bevel" stroke-miterlimit="10"/><path fill="none" stroke="black" paint-order="fill stroke markers" d=" M 48 155 L 52 155" stroke-linejoin="bevel" stroke-miterlimit="10"/><path fill="none" stroke="black" paint-order="fill stroke markers" d=" M 48 134 L 52 134" stroke-linejoin="bevel" stroke-miterlimit="10"/><path fill="none" stroke="black" paint-order="fill stroke markers" d=" M 48 114 L 52 114" stroke-linejoin="bevel" stroke-miterlimit="10"/><path fill="none" stroke="black" paint-order="fill stroke markers" d=" M 48 93 L 52 93" stroke-linejoin="bevel" stroke-miterlimit="10"/><path fill="none" stroke="black" paint-order="fill stroke markers" d=" M 48 72 L 52 72" stroke-linejoin="bevel" stroke-miterlimit="10"/><path fill="none" stroke="black" paint-order="fill stroke markers" d=" M 48 51 L 52 51" stroke-linejoin="bevel" stroke-miterlimit="10"/><path fill="" stroke="black" paint-order="fill stroke markers" d=" M 48 30 L 52 30" stroke-linejoin="bevel" stroke-miterlimit="10"/><g transform="translate(41,531) rotate(0,0,0)"><text fill="" stroke="none" font-family="helvetica" font-size="8pt" font-style="normal" font-weight="normal" text-decoration="normal" x="0" y="0" text-anchor="end" dominant-baseline="central">0</text><g transform="rotate(0,0,0) translate(-41,-531) translate(41,427) rotate(0,0,0)"><text fill="" stroke="none" font-family="helvetica" font-size="8pt" font-style="normal" font-weight="normal" text-decoration="normal" x="0" y="0" text-anchor="end" dominant-baseline="central">200</text><g transform="rotate(0,0,0) translate(-41,-427) translate(41,322) rotate(0,0,0)"><text fill="" stroke="none" font-family="helvetica" font-size="8pt" font-style="normal" font-weight="normal" text-decoration="normal" x="0" y="0" text-anchor="end" dominant-baseline="central">400</text><g transform="rotate(0,0,0) translate(-41,-322) translate(41,218) rotate(0,0,0)"><text fill="" stroke="none" font-family="helvetica" font-size="8pt" font-style="normal" font-weight="normal" text-decoration="normal" x="0" y="0" text-anchor="end" dominant-baseline="central">600</text><g transform="rotate(0,0,0) translate(-41,-218) translate(41,114) rotate(0,0,0)"><text fill="" stroke="none" font-family="helvetica" font-size="8pt" font-style="normal" font-weight="normal" text-decoration="normal" x="0" y="0" text-anchor="end" dominant-baseline="central">800</text><g transform="rotate(0,0,0) translate(-41,-114) translate(16,292) rotate(-90,0,0)"><text fill="" stroke="none" font-family="helvetica" font-size="10pt" font-style="italic" font-weight="normal" text-decoration="normal" x="0" y="0" text-anchor="middle" dominant-baseline="alphabetic"># of pics</text><g transform="rotate(90,0,0) translate(-16,-292)"/></g></g></g></g></g></g></g><g clip-path="url(#rHvPCfdktqsu)"><g/></g></g></g></g></svg>