<svg version="1.1" xmlns="http://www.w3.org/2000/svg" xmlns:xlink="http://www.w3.org/1999/xlink" width="600" height="600" style="width: 600px; height: 600px;"><defs><clipPath id="MstNzKLeMwBW"><path fill="none" stroke="none" d=" M 58 28 L 570 28 L 570 555 L 58 555 L 58 28 Z"/></clipPath><clipPath id="CoGXxyLfomhW"><path fill="none" stroke="none" d=" M 58 28 L 570 28 L 570 555 L 58 555 L 58 28 Z"/></clipPath></defs><g><g transform="scale(1,1) translate(0.5,0.5)"><rect fill="#FFFFFF" stroke="none" x="0" y="0" width="600" height="600"/><rect fill="#ffffff" stroke="none" x="0" y="0" width="600" height="600"/><rect fill="#FFFFFF" stroke="none" x="58" y="28" width="512" height="527"/><rect fill="#E8DDCB" stroke="none" x="58" y="28" width="512" height="527"/><g><rect fill="none" stroke="#e5e5e5" x="58" y="28" width="512" height="527" stroke-linejoin="bevel" stroke-miterlimit="10"/></g><g clip-path="url(#MstNzKLeMwBW)"><g><g><path fill="none" stroke="#e5e5e5" paint-order="fill stroke markers" d=" M 104 555 L 104 28" stroke-linejoin="bevel" stroke-miterlimit="10"/><path fill="none" stroke="#e5e5e5" paint-order="fill stroke markers" d=" M 183 555 L 183 28" stroke-linejoin="bevel" stroke-miterlimit="10"/><path fill="none" stroke="#e5e5e5" paint-order="fill stroke markers" d=" M 262 555 L 262 28" stroke-linejoin="bevel" stroke-miterlimit="10"/><path fill="none" stroke="#e5e5e5" paint-order="fill stroke markers" d=" M 340 555 L 340 28" stroke-linejoin="bevel" stroke-miterlimit="10"/><path fill="none" stroke="#e5e5e5" paint-order="fill stroke markers" d=" M 419 555 L 419 28" stroke-linejoin="bevel" stroke-miterlimit="10"/><path fill="none" stroke="#e5e5e5" paint-order="fill stroke markers" d=" M 498 555 L 498 28" stroke-linejoin="bevel" stroke-miterlimit="10"/></g><g><path fill="none" stroke="#e5e5e5" paint-order="fill stroke markers" d=" M 58 531 L 570 531" stroke-linejoin="bevel" stroke-miterlimit="10"/><path fill="none" stroke="#e5e5e5" paint-order="fill stroke markers" d=" M 58 418 L 570 418" stroke-linejoin="bevel" stroke-miterlimit="10"/><path fill="none" stroke="#e5e5e5" paint-order="fill stroke markers" d=" M 58 305 L 570 305" stroke-linejoin="bevel" stroke-miterlimit="10"/><path fill="none" stroke="#e5e5e5" paint-order="fill stroke markers" d=" M 58 192 L 570 192" stroke-linejoin="bevel" stroke-miterlimit="10"/><path fill="none" stroke="#e5e5e5" paint-order="fill stroke markers" d=" M 58 79 L 570 79" stroke-linejoin="bevel" stroke-miterlimit="10"/></g><g><path fill="none" stroke="none"/><rect fill="#1f77b4" stroke="none" x="81.27272727272737" y="531.0447235989408" width="1.248281478183344e-10" height="0.0007309465137268489"/><path fill="none" stroke="#1f77b4" paint-order="fill stroke markers" d=" M 81.27272727272737 531.0447235989408 L 81.2727272728522 531.0447235989408 L 81.2727272728522 531.0454545454545 L 81.27272727272737 531.0454545454545 L 81.27272727272737 531.0447235989408 Z" stroke-linejoin="bevel" stroke-miterlimit="10"/><rect fill="#1f77b4" stroke="none" x="147.07391359217468" y="531.0441807593077" width="1.2460077414289117e-10" height="0.001273786146839484"/><path fill="none" stroke="#1f77b4" paint-order="fill stroke markers" d=" M 147.07391359217468 531.0441807593077 L 147.07391359229928 531.0441807593077 L 147.07391359229928 531.0454545454545 L 147.07391359217468 531.0454545454545 L 147.07391359217468 531.0441807593077 Z" stroke-linejoin="bevel" stroke-miterlimit="10"/><rect fill="#1f77b4" stroke="none" x="264.999116570562" y="531.008140148549" width="1.248281478183344e-10" height="0.037314396905458125"/><path fill="none" stroke="#1f77b4" paint-order="fill stroke markers" d=" M 264.999116570562 531.008140148549 L 264.99911657068685 531.008140148549 L 264.99911657068685 531.0454545454545 L 264.999116570562 531.0454545454545 L 264.999116570562 531.008140148549 Z" stroke-linejoin="bevel" stroke-miterlimit="10"/><rect fill="#1f77b4" stroke="none" x="268.1222498001265" y="530.8949688793969" width="1.248281478183344e-10" height="0.1504856660576479"/><path fill="none" stroke="#1f77b4" paint-order="fill stroke markers" d=" M 268.1222498001265 530.8949688793969 L 268.1222498002513 530.8949688793969 L 268.1222498002513 531.0454545454545 L 268.1222498001265 531.0454545454545 L 268.1222498001265 530.8949688793969 Z" stroke-linejoin="bevel" stroke-miterlimit="10"/><rect fill="#1f77b4" stroke="none" x="271.4607715282817" y="530.997439483522" width="1.248281478183344e-10" height="0.04801506193246041"/><path fill="none" stroke="#1f77b4" paint-order="fill stroke markers" d=" M 271.4607715282817 530.997439483522 L 271.46077152840655 530.997439483522 L 271.46077152840655 531.0454545454545 L 271.4607715282817 531.0454545454545 L 271.4607715282817 530.997439483522 Z" stroke-linejoin="bevel" stroke-miterlimit="10"/><rect fill="#1f77b4" stroke="none" x="274.6915990071417" y="528.8951577387304" width="1.248281478183344e-10" height="2.1502968067241"/><path fill="none" stroke="#1f77b4" paint-order="fill stroke markers" d=" M 274.6915990071417 528.8951577387304 L 274.6915990072665 528.8951577387304 L 274.6915990072665 531.0454545454545 L 274.6915990071417 531.0454545454545 L 274.6915990071417 528.8951577387304 Z" stroke-linejoin="bevel" stroke-miterlimit="10"/><rect fill="#1f77b4" stroke="none" x="278.0301207352969" y="528.897753387568" width="1.248281478183344e-10" height="2.1477011578865586"/><path fill="none" stroke="#1f77b4" paint-order="fill stroke markers" d=" M 278.0301207352969 528.897753387568 L 278.03012073542175 528.897753387568 L 278.03012073542175 531.0454545454545 L 278.0301207352969 531.0454545454545 L 278.0301207352969 528.897753387568 Z" stroke-linejoin="bevel" stroke-miterlimit="10"/><rect fill="#1f77b4" stroke="none" x="281.2609482141569" y="530.9877336207106" width="1.248281478183344e-10" height="0.05772092474387591"/><path fill="none" stroke="#1f77b4" paint-order="fill stroke markers" d=" M 281.2609482141569 530.9877336207106 L 281.2609482142817 530.9877336207106 L 281.2609482142817 531.0454545454545 L 281.2609482141569 531.0454545454545 L 281.2609482141569 530.9877336207106 Z" stroke-linejoin="bevel" stroke-miterlimit="10"/><rect fill="#1f77b4" stroke="none" x="284.5994699423121" y="530.8821478395857" width="1.248281478183344e-10" height="0.16330670586876295"/><path fill="none" stroke="#1f77b4" paint-order="fill stroke markers" d=" M 284.5994699423121 530.8821478395857 L 284.59946994243694 530.8821478395857 L 284.59946994243694 531.0454545454545 L 284.5994699423121 531.0454545454545 L 284.5994699423121 530.8821478395857 Z" stroke-linejoin="bevel" stroke-miterlimit="10"/><rect fill="#1f77b4" stroke="none" x="287.93799167046734" y="530.9918403158619" width="1.248281478183344e-10" height="0.05361422959265383"/><path fill="none" stroke="#1f77b4" paint-order="fill stroke markers" d=" M 287.93799167046734 530.9918403158619 L 287.93799167059217 530.9918403158619 L 287.93799167059217 531.0454545454545 L 287.93799167046734 531.0454545454545 L 287.93799167046734 530.9918403158619 Z" stroke-linejoin="bevel" stroke-miterlimit="10"/><rect fill="#1f77b4" stroke="none" x="291.1688191493273" y="530.9206286714301" width="1.248281478183344e-10" height="0.12482587402439549"/><path fill="none" stroke="#1f77b4" paint-order="fill stroke markers" d=" M 291.1688191493273 530.9206286714301 L 291.16881914945213 530.9206286714301 L 291.16881914945213 531.0454545454545 L 291.1688191493273 531.0454545454545 L 291.1688191493273 530.9206286714301 Z" stroke-linejoin="bevel" stroke-miterlimit="10"/><rect fill="#1f77b4" stroke="none" x="294.50734087748253" y="531.0209377692152" width="1.248281478183344e-10" height="0.02451677623935211"/><path fill="none" stroke="#1f77b4" paint-order="fill stroke markers" d=" M 294.50734087748253 531.0209377692152 L 294.50734087760736 531.0209377692152 L 294.50734087760736 531.0454545454545 L 294.50734087748253 531.0454545454545 L 294.50734087748253 531.0209377692152 Z" stroke-linejoin="bevel" stroke-miterlimit="10"/><rect fill="#1f77b4" stroke="none" x="297.7381683563425" y="531.0285396775627" width="1.248281478183344e-10" height="0.016914867891841823"/><path fill="none" stroke="#1f77b4" paint-order="fill stroke markers" d=" M 297.7381683563425 531.0285396775627 L 297.7381683564673 531.0285396775627 L 297.7381683564673 531.0454545454545 L 297.7381683563425 531.0454545454545 L 297.7381683563425 531.0285396775627 Z" stroke-linejoin="bevel" stroke-miterlimit="10"/><rect fill="#1f77b4" stroke="none" x="310.76917252107773" y="531.0372102526478" width="1.2460077414289117e-10" height="0.00824429280669392"/><path fill="none" stroke="#1f77b4" paint-order="fill stroke markers" d=" M 310.76917252107773 531.0372102526478 L 310.76917252120234 531.0372102526478 L 310.76917252120234 531.0454545454545 L 310.76917252107773 531.0454545454545 L 310.76917252107773 531.0372102526478 Z" stroke-linejoin="bevel" stroke-miterlimit="10"/><rect fill="#1f77b4" stroke="none" x="317.3385217280929" y="525.5662341475588" width="1.2460077414289117e-10" height="5.479220397895688"/><path fill="none" stroke="#1f77b4" paint-order="fill stroke markers" d=" M 317.3385217280929 525.5662341475588 L 317.33852172821753 525.5662341475588 L 317.33852172821753 531.0454545454545 L 317.3385217280929 531.0454545454545 L 317.3385217280929 525.5662341475588 Z" stroke-linejoin="bevel" stroke-miterlimit="10"/><rect fill="#1f77b4" stroke="none" x="320.5693492069528" y="531.038527593021" width="1.248281478183344e-10" height="0.006926952433559563"/><path fill="none" stroke="#1f77b4" paint-order="fill stroke markers" d=" M 320.5693492069528 531.038527593021 L 320.5693492070776 531.038527593021 L 320.5693492070776 531.0454545454545 L 320.5693492069528 531.0454545454545 L 320.5693492069528 531.038527593021 Z" stroke-linejoin="bevel" stroke-miterlimit="10"/><rect fill="#1f77b4" stroke="none" x="327.24639266326335" y="529.8795145310527" width="1.2460077414289117e-10" height="1.1659400144018264"/><path fill="none" stroke="#1f77b4" paint-order="fill stroke markers" d=" M 327.24639266326335 529.8795145310527 L 327.24639266338795 529.8795145310527 L 327.24639266338795 531.0454545454545 L 327.24639266326335 531.0454545454545 L 327.24639266326335 529.8795145310527 Z" stroke-linejoin="bevel" stroke-miterlimit="10"/><rect fill="#1f77b4" stroke="none" x="333.81574187027854" y="528.7786575053939" width="1.2460077414289117e-10" height="2.2667970400606237"/><path fill="none" stroke="#1f77b4" paint-order="fill stroke markers" d=" M 333.81574187027854 528.7786575053939 L 333.81574187040314 528.7786575053939 L 333.81574187040314 531.0454545454545 L 333.81574187027854 531.0454545454545 L 333.81574187027854 528.7786575053939 Z" stroke-linejoin="bevel" stroke-miterlimit="10"/><rect fill="#1f77b4" stroke="none" x="337.0465693491384" y="530.2401046538986" width="1.248281478183344e-10" height="0.8053498915559203"/><path fill="none" stroke="#1f77b4" paint-order="fill stroke markers" d=" M 337.0465693491384 530.2401046538986 L 337.0465693492632 530.2401046538986 L 337.0465693492632 531.0454545454545 L 337.0465693491384 531.0454545454545 L 337.0465693491384 530.2401046538986 Z" stroke-linejoin="bevel" stroke-miterlimit="10"/><rect fill="#1f77b4" stroke="none" x="340.38509107729374" y="530.4350834654833" width="1.2460077414289117e-10" height="0.6103710799711735"/><path fill="none" stroke="#1f77b4" paint-order="fill stroke markers" d=" M 340.38509107729374 530.4350834654833 L 340.38509107741834 530.4350834654833 L 340.38509107741834 531.0454545454545 L 340.38509107729374 531.0454545454545 L 340.38509107729374 530.4350834654833 Z" stroke-linejoin="bevel" stroke-miterlimit="10"/><rect fill="#1f77b4" stroke="none" x="343.72361280544897" y="530.7805032583199" width="1.2460077414289117e-10" height="0.264951287134636"/><path fill="none" stroke="#1f77b4" paint-order="fill stroke markers" d=" M 343.72361280544897 530.7805032583199 L 343.72361280557357 530.7805032583199 L 343.72361280557357 531.0454545454545 L 343.72361280544897 531.0454545454545 L 343.72361280544897 530.7805032583199 Z" stroke-linejoin="bevel" stroke-miterlimit="10"/><rect fill="#1f77b4" stroke="none" x="346.73905178571806" y="530.3945558003542" width="1.248281478183344e-10" height="0.650898745100335"/><path fill="none" stroke="#1f77b4" paint-order="fill stroke markers" d=" M 346.73905178571806 530.3945558003542 L 346.7390517858429 530.3945558003542 L 346.7390517858429 531.0454545454545 L 346.73905178571806 531.0454545454545 L 346.73905178571806 530.3945558003542 Z" stroke-linejoin="bevel" stroke-miterlimit="10"/><rect fill="#1f77b4" stroke="none" x="350.0775735138733" y="530.0732798540596" width="1.248281478183344e-10" height="0.9721746913949119"/><path fill="none" stroke="#1f77b4" paint-order="fill stroke markers" d=" M 350.0775735138733 530.0732798540596 L 350.0775735139981 530.0732798540596 L 350.0775735139981 531.0454545454545 L 350.0775735138733 531.0454545454545 L 350.0775735138733 530.0732798540596 Z" stroke-linejoin="bevel" stroke-miterlimit="10"/><rect fill="#1f77b4" stroke="none" x="353.30840099273325" y="530.441380792854" width="1.248281478183344e-10" height="0.6040737526004705"/><path fill="none" stroke="#1f77b4" paint-order="fill stroke markers" d=" M 353.30840099273325 530.441380792854 L 353.3084009928581 530.441380792854 L 353.3084009928581 531.0454545454545 L 353.30840099273325 531.0454545454545 L 353.30840099273325 530.441380792854 Z" stroke-linejoin="bevel" stroke-miterlimit="10"/><rect fill="#1f77b4" stroke="none" x="356.6469227208885" y="530.5758516399126" width="1.248281478183344e-10" height="0.46960290554193307"/><path fill="none" stroke="#1f77b4" paint-order="fill stroke markers" d=" M 356.6469227208885 530.5758516399126 L 356.6469227210133 530.5758516399126 L 356.6469227210133 531.0454545454545 L 356.6469227208885 531.0454545454545 L 356.6469227208885 530.5758516399126 Z" stroke-linejoin="bevel" stroke-miterlimit="10"/><rect fill="#1f77b4" stroke="none" x="359.87775019974845" y="530.0335798807404" width="1.248281478183344e-10" height="1.011874664714128"/><path fill="none" stroke="#1f77b4" paint-order="fill stroke markers" d=" M 359.87775019974845 530.0335798807404 L 359.8777501998733 530.0335798807404 L 359.8777501998733 531.0454545454545 L 359.87775019974845 531.0454545454545 L 359.87775019974845 530.0335798807404 Z" stroke-linejoin="bevel" stroke-miterlimit="10"/><rect fill="#1f77b4" stroke="none" x="363.2162719279037" y="530.8385591575949" width="1.248281478183344e-10" height="0.20689538785961759"/><path fill="none" stroke="#1f77b4" paint-order="fill stroke markers" d=" M 363.2162719279037 530.8385591575949 L 363.2162719280285 530.8385591575949 L 363.2162719280285 531.0454545454545 L 363.2162719279037 531.0454545454545 L 363.2162719279037 530.8385591575949 Z" stroke-linejoin="bevel" stroke-miterlimit="10"/><rect fill="#1f77b4" stroke="none" x="366.55479365605913" y="528.1311199190728" width="1.248281478183344e-10" height="2.914334626381674"/><path fill="none" stroke="#1f77b4" paint-order="fill stroke markers" d=" M 366.55479365605913 528.1311199190728 L 366.55479365618396 528.1311199190728 L 366.55479365618396 531.0454545454545 L 366.55479365605913 531.0454545454545 L 366.55479365605913 528.1311199190728 Z" stroke-linejoin="bevel" stroke-miterlimit="10"/><rect fill="#1f77b4" stroke="none" x="369.78562113491887" y="530.2767493170903" width="1.248281478183344e-10" height="0.7687052283641833"/><path fill="none" stroke="#1f77b4" paint-order="fill stroke markers" d=" M 369.78562113491887 530.2767493170903 L 369.7856211350437 530.2767493170903 L 369.7856211350437 531.0454545454545 L 369.78562113491887 531.0454545454545 L 369.78562113491887 530.2767493170903 Z" stroke-linejoin="bevel" stroke-miterlimit="10"/><rect fill="#1f77b4" stroke="none" x="373.1241428630743" y="529.8130982661505" width="1.248281478183344e-10" height="1.2323562793039855"/><path fill="none" stroke="#1f77b4" paint-order="fill stroke markers" d=" M 373.1241428630743 529.8130982661505 L 373.12414286319915 529.8130982661505 L 373.12414286319915 531.0454545454545 L 373.1241428630743 531.0454545454545 L 373.1241428630743 529.8130982661505 Z" stroke-linejoin="bevel" stroke-miterlimit="10"/><rect fill="#1f77b4" stroke="none" x="376.35497034193406" y="529.0855577036631" width="1.248281478183344e-10" height="1.9598968417914193"/><path fill="none" stroke="#1f77b4" paint-order="fill stroke markers" d=" M 376.35497034193406 529.0855577036631 L 376.3549703420589 529.0855577036631 L 376.3549703420589 531.0454545454545 L 376.35497034193406 531.0454545454545 L 376.35497034193406 529.0855577036631 Z" stroke-linejoin="bevel" stroke-miterlimit="10"/><rect fill="#1f77b4" stroke="none" x="379.6934920700895" y="528.9208876266878" width="1.248281478183344e-10" height="2.1245669187667318"/><path fill="none" stroke="#1f77b4" paint-order="fill stroke markers" d=" M 379.6934920700895 528.9208876266878 L 379.69349207021435 528.9208876266878 L 379.69349207021435 531.0454545454545 L 379.6934920700895 531.0454545454545 L 379.6934920700895 528.9208876266878 Z" stroke-linejoin="bevel" stroke-miterlimit="10"/><rect fill="#1f77b4" stroke="none" x="383.03201379824475" y="530.4314479527646" width="1.248281478183344e-10" height="0.6140065926898615"/><path fill="none" stroke="#1f77b4" paint-order="fill stroke markers" d=" M 383.03201379824475 530.4314479527646 L 383.0320137983696 530.4314479527646 L 383.0320137983696 531.0454545454545 L 383.03201379824475 531.0454545454545 L 383.03201379824475 530.4314479527646 Z" stroke-linejoin="bevel" stroke-miterlimit="10"/><rect fill="#1f77b4" stroke="none" x="386.04745277851407" y="529.2907242740778" width="1.2460077414289117e-10" height="1.7547302713767294"/><path fill="none" stroke="#1f77b4" paint-order="fill stroke markers" d=" M 386.04745277851407 529.2907242740778 L 386.0474527786387 529.2907242740778 L 386.0474527786387 531.0454545454545 L 386.04745277851407 531.0454545454545 L 386.04745277851407 529.2907242740778 Z" stroke-linejoin="bevel" stroke-miterlimit="10"/><rect fill="#1f77b4" stroke="none" x="389.3859745066693" y="528.9689169554557" width="1.2460077414289117e-10" height="2.076537589998793"/><path fill="none" stroke="#1f77b4" paint-order="fill stroke markers" d=" M 389.3859745066693 528.9689169554557 L 389.3859745067939 528.9689169554557 L 389.3859745067939 531.0454545454545 L 389.3859745066693 531.0454545454545 L 389.3859745066693 528.9689169554557 Z" stroke-linejoin="bevel" stroke-miterlimit="10"/><rect fill="#1f77b4" stroke="none" x="392.61680198552926" y="528.9779798415998" width="1.2460077414289117e-10" height="2.067474703854714"/><path fill="none" stroke="#1f77b4" paint-order="fill stroke markers" d=" M 392.61680198552926 528.9779798415998 L 392.61680198565386 528.9779798415998 L 392.61680198565386 531.0454545454545 L 392.61680198552926 531.0454545454545 L 392.61680198552926 528.9779798415998 Z" stroke-linejoin="bevel" stroke-miterlimit="10"/><rect fill="#1f77b4" stroke="none" x="395.9553237136845" y="529.4433392518806" width="1.2460077414289117e-10" height="1.6021152935738883"/><path fill="none" stroke="#1f77b4" paint-order="fill stroke markers" d=" M 395.9553237136845 529.4433392518806 L 395.9553237138091 529.4433392518806 L 395.9553237138091 531.0454545454545 L 395.9553237136845 531.0454545454545 L 395.9553237136845 529.4433392518806 Z" stroke-linejoin="bevel" stroke-miterlimit="10"/><rect fill="#1f77b4" stroke="none" x="399.18615119254446" y="530.4266565571817" width="1.2460077414289117e-10" height="0.6187979882728314"/><path fill="none" stroke="#1f77b4" paint-order="fill stroke markers" d=" M 399.18615119254446 530.4266565571817 L 399.18615119266906 530.4266565571817 L 399.18615119266906 531.0454545454545 L 399.18615119254446 531.0454545454545 L 399.18615119254446 530.4266565571817 Z" stroke-linejoin="bevel" stroke-miterlimit="10"/><rect fill="#1f77b4" stroke="none" x="402.5246729206997" y="530.6817069296363" width="1.2460077414289117e-10" height="0.36374761581816983"/><path fill="none" stroke="#1f77b4" paint-order="fill stroke markers" d=" M 402.5246729206997 530.6817069296363 L 402.5246729208243 530.6817069296363 L 402.5246729208243 531.0454545454545 L 402.5246729206997 531.0454545454545 L 402.5246729206997 530.6817069296363 Z" stroke-linejoin="bevel" stroke-miterlimit="10"/><rect fill="#1f77b4" stroke="none" x="405.8631946488548" y="529.7032573071106" width="1.248281478183344e-10" height="1.3421972383439424"/><path fill="none" stroke="#1f77b4" paint-order="fill stroke markers" d=" M 405.8631946488548 529.7032573071106 L 405.86319464897963 529.7032573071106 L 405.86319464897963 531.0454545454545 L 405.8631946488548 531.0454545454545 L 405.8631946488548 529.7032573071106 Z" stroke-linejoin="bevel" stroke-miterlimit="10"/><rect fill="#1f77b4" stroke="none" x="409.0940221277149" y="529.7480074710259" width="1.2460077414289117e-10" height="1.2974470744286464"/><path fill="none" stroke="#1f77b4" paint-order="fill stroke markers" d=" M 409.0940221277149 529.7480074710259 L 409.0940221278395 529.7480074710259 L 409.0940221278395 531.0454545454545 L 409.0940221277149 531.0454545454545 L 409.0940221277149 529.7480074710259 Z" stroke-linejoin="bevel" stroke-miterlimit="10"/><rect fill="#1f77b4" stroke="none" x="412.43254385587" y="527.2294172039832" width="1.248281478183344e-10" height="3.816037341471315"/><path fill="none" stroke="#1f77b4" paint-order="fill stroke markers" d=" M 412.43254385587 527.2294172039832 L 412.4325438559948 527.2294172039832 L 412.4325438559948 531.0454545454545 L 412.43254385587 531.0454545454545 L 412.43254385587 527.2294172039832 Z" stroke-linejoin="bevel" stroke-miterlimit="10"/><rect fill="#1f77b4" stroke="none" x="415.6633713347301" y="528.5783150096911" width="1.2460077414289117e-10" height="2.4671395357634083"/><path fill="none" stroke="#1f77b4" paint-order="fill stroke markers" d=" M 415.6633713347301 528.5783150096911 L 415.6633713348547 528.5783150096911 L 415.6633713348547 531.0454545454545 L 415.6633713347301 531.0454545454545 L 415.6633713347301 528.5783150096911 Z" stroke-linejoin="bevel" stroke-miterlimit="10"/><rect fill="#1f77b4" stroke="none" x="419.0018930628853" y="530.5387613130807" width="1.2460077414289117e-10" height="0.5066932323737774"/><path fill="none" stroke="#1f77b4" paint-order="fill stroke markers" d=" M 419.0018930628853 530.5387613130807 L 419.0018930630099 530.5387613130807 L 419.0018930630099 531.0454545454545 L 419.0018930628853 531.0454545454545 L 419.0018930628853 530.5387613130807 Z" stroke-linejoin="bevel" stroke-miterlimit="10"/><rect fill="#1f77b4" stroke="none" x="422.3404147910404" y="529.530883138943" width="1.248281478183344e-10" height="1.5145714065115499"/><path fill="none" stroke="#1f77b4" paint-order="fill stroke markers" d=" M 422.3404147910404 529.530883138943 L 422.34041479116524 529.530883138943 L 422.34041479116524 531.0454545454545 L 422.3404147910404 531.0454545454545 L 422.3404147910404 529.530883138943 Z" stroke-linejoin="bevel" stroke-miterlimit="10"/><rect fill="#1f77b4" stroke="none" x="425.4635480206051" y="530.1095488956983" width="1.248281478183344e-10" height="0.9359056497562506"/><path fill="none" stroke="#1f77b4" paint-order="fill stroke markers" d=" M 425.4635480206051 530.1095488956983 L 425.46354802072995 530.1095488956983 L 425.46354802072995 531.0454545454545 L 425.4635480206051 531.0454545454545 L 425.4635480206051 530.1095488956983 Z" stroke-linejoin="bevel" stroke-miterlimit="10"/><rect fill="#1f77b4" stroke="none" x="428.80206974876046" y="529.0928228608548" width="1.2460077414289117e-10" height="1.9526316845997371"/><path fill="none" stroke="#1f77b4" paint-order="fill stroke markers" d=" M 428.80206974876046 529.0928228608548 L 428.80206974888506 529.0928228608548 L 428.80206974888506 531.0454545454545 L 428.80206974876046 531.0454545454545 L 428.80206974876046 529.0928228608548 Z" stroke-linejoin="bevel" stroke-miterlimit="10"/><rect fill="#1f77b4" stroke="none" x="432.0328972276203" y="528.6250037404523" width="1.248281478183344e-10" height="2.420450805002247"/><path fill="none" stroke="#1f77b4" paint-order="fill stroke markers" d=" M 432.0328972276203 528.6250037404523 L 432.03289722774514 528.6250037404523 L 432.03289722774514 531.0454545454545 L 432.0328972276203 531.0454545454545 L 432.0328972276203 528.6250037404523 Z" stroke-linejoin="bevel" stroke-miterlimit="10"/><rect fill="#1f77b4" stroke="none" x="435.37141895577565" y="528.5075237792925" width="1.2460077414289117e-10" height="2.5379307661620487"/><path fill="none" stroke="#1f77b4" paint-order="fill stroke markers" d=" M 435.37141895577565 528.5075237792925 L 435.37141895590025 528.5075237792925 L 435.37141895590025 531.0454545454545 L 435.37141895577565 531.0454545454545 L 435.37141895577565 528.5075237792925 Z" stroke-linejoin="bevel" stroke-miterlimit="10"/><rect fill="#1f77b4" stroke="none" x="438.6022464346355" y="526.2287076570894" width="1.248281478183344e-10" height="4.81674688836506"/><path fill="none" stroke="#1f77b4" paint-order="fill stroke markers" d=" M 438.6022464346355 526.2287076570894 L 438.60224643476033 526.2287076570894 L 438.60224643476033 531.0454545454545 L 438.6022464346355 531.0454545454545 L 438.6022464346355 526.2287076570894 Z" stroke-linejoin="bevel" stroke-miterlimit="10"/><rect fill="#1f77b4" stroke="none" x="441.94076816279085" y="528.3283784094656" width="1.2460077414289117e-10" height="2.7170761359889184"/><path fill="none" stroke="#1f77b4" paint-order="fill stroke markers" d=" M 441.94076816279085 528.3283784094656 L 441.94076816291545 528.3283784094656 L 441.94076816291545 531.0454545454545 L 441.94076816279085 531.0454545454545 L 441.94076816279085 528.3283784094656 Z" stroke-linejoin="bevel" stroke-miterlimit="10"/><rect fill="#1f77b4" stroke="none" x="445.2792898909461" y="520.9440745134392" width="1.2460077414289117e-10" height="10.1013800320153"/><path fill="none" stroke="#1f77b4" paint-order="fill stroke markers" d=" M 445.2792898909461 520.9440745134392 L 445.2792898910707 520.9440745134392 L 445.2792898910707 531.0454545454545 L 445.2792898909461 531.0454545454545 L 445.2792898909461 520.9440745134392 Z" stroke-linejoin="bevel" stroke-miterlimit="10"/><rect fill="#1f77b4" stroke="none" x="448.51011736980604" y="520.8968707768336" width="1.2460077414289117e-10" height="10.148583768620938"/><path fill="none" stroke="#1f77b4" paint-order="fill stroke markers" d=" M 448.51011736980604 520.8968707768336 L 448.51011736993064 520.8968707768336 L 448.51011736993064 531.0454545454545 L 448.51011736980604 531.0454545454545 L 448.51011736980604 520.8968707768336 Z" stroke-linejoin="bevel" stroke-miterlimit="10"/><rect fill="#1f77b4" stroke="none" x="451.84863909796127" y="529.8967978063242" width="1.2460077414289117e-10" height="1.1486567391302742"/><path fill="none" stroke="#1f77b4" paint-order="fill stroke markers" d=" M 451.84863909796127 529.8967978063242 L 451.84863909808587 529.8967978063242 L 451.84863909808587 531.0454545454545 L 451.84863909796127 531.0454545454545 L 451.84863909796127 529.8967978063242 Z" stroke-linejoin="bevel" stroke-miterlimit="10"/><rect fill="#1f77b4" stroke="none" x="455.07946657682123" y="526.1942040421341" width="1.2460077414289117e-10" height="4.851250503320443"/><path fill="none" stroke="#1f77b4" paint-order="fill stroke markers" d=" M 455.07946657682123 526.1942040421341 L 455.07946657694583 526.1942040421341 L 455.07946657694583 531.0454545454545 L 455.07946657682123 531.0454545454545 L 455.07946657682123 526.1942040421341 Z" stroke-linejoin="bevel" stroke-miterlimit="10"/><rect fill="#1f77b4" stroke="none" x="458.41798830497646" y="526.790517982128" width="1.2460077414289117e-10" height="4.25493656332651"/><path fill="none" stroke="#1f77b4" paint-order="fill stroke markers" d=" M 458.41798830497646 526.790517982128 L 458.41798830510106 526.790517982128 L 458.41798830510106 531.0454545454545 L 458.41798830497646 531.0454545454545 L 458.41798830497646 526.790517982128 Z" stroke-linejoin="bevel" stroke-miterlimit="10"/><rect fill="#1f77b4" stroke="none" x="461.7565100331316" y="522.8465943419789" width="1.248281478183344e-10" height="8.198860203475647"/><path fill="none" stroke="#1f77b4" paint-order="fill stroke markers" d=" M 461.7565100331316 522.8465943419789 L 461.7565100332564 522.8465943419789 L 461.7565100332564 531.0454545454545 L 461.7565100331316 531.0454545454545 L 461.7565100331316 522.8465943419789 Z" stroke-linejoin="bevel" stroke-miterlimit="10"/><rect fill="#1f77b4" stroke="none" x="464.7719490134008" y="528.8973100389239" width="1.248281478183344e-10" height="2.1481445065305707"/><path fill="none" stroke="#1f77b4" paint-order="fill stroke markers" d=" M 464.7719490134008 528.8973100389239 L 464.7719490135256 528.8973100389239 L 464.7719490135256 531.0454545454545 L 464.7719490134008 531.0454545454545 L 464.7719490134008 528.8973100389239 Z" stroke-linejoin="bevel" stroke-miterlimit="10"/><rect fill="#1f77b4" stroke="none" x="468.11047074155624" y="523.4212956950785" width="1.248281478183344e-10" height="7.624158850376034"/><path fill="none" stroke="#1f77b4" paint-order="fill stroke markers" d=" M 468.11047074155624 523.4212956950785 L 468.11047074168107 523.4212956950785 L 468.11047074168107 531.0454545454545 L 468.11047074155624 531.0454545454545 L 468.11047074155624 523.4212956950785 Z" stroke-linejoin="bevel" stroke-miterlimit="10"/><rect fill="#1f77b4" stroke="none" x="471.341298220416" y="508.6884043605133" width="1.248281478183344e-10" height="22.357050184941215"/><path fill="none" stroke="#1f77b4" paint-order="fill stroke markers" d=" M 471.341298220416 508.6884043605133 L 471.3412982205408 508.6884043605133 L 471.3412982205408 531.0454545454545 L 471.341298220416 531.0454545454545 L 471.341298220416 508.6884043605133 Z" stroke-linejoin="bevel" stroke-miterlimit="10"/><rect fill="#1f77b4" stroke="none" x="474.67981994857143" y="524.568605806445" width="1.248281478183344e-10" height="6.476848739009483"/><path fill="none" stroke="#1f77b4" paint-order="fill stroke markers" d=" M 474.67981994857143 524.568605806445 L 474.67981994869626 524.568605806445 L 474.67981994869626 531.0454545454545 L 474.67981994857143 531.0454545454545 L 474.67981994857143 524.568605806445 Z" stroke-linejoin="bevel" stroke-miterlimit="10"/><rect fill="#1f77b4" stroke="none" x="477.9106474274312" y="518.4827128845586" width="1.248281478183344e-10" height="12.562741660895881"/><path fill="none" stroke="#1f77b4" paint-order="fill stroke markers" d=" M 477.9106474274312 518.4827128845586 L 477.910647427556 518.4827128845586 L 477.910647427556 531.0454545454545 L 477.9106474274312 531.0454545454545 L 477.9106474274312 518.4827128845586 Z" stroke-linejoin="bevel" stroke-miterlimit="10"/><rect fill="#1f77b4" stroke="none" x="481.2491691555864" y="345.5129560167429" width="1.248281478183344e-10" height="185.53249852871159"/><path fill="none" stroke="#1f77b4" paint-order="fill stroke markers" d=" M 481.2491691555864 345.5129560167429 L 481.24916915571123 345.5129560167429 L 481.24916915571123 531.0454545454545 L 481.2491691555864 531.0454545454545 L 481.2491691555864 345.5129560167429 Z" stroke-linejoin="bevel" stroke-miterlimit="10"/><rect fill="#1f77b4" stroke="none" x="484.58769088374186" y="495.8377188726504" width="1.248281478183344e-10" height="35.20773567280412"/><path fill="none" stroke="#1f77b4" paint-order="fill stroke markers" d=" M 484.58769088374186 495.8377188726504 L 484.5876908838667 495.8377188726504 L 484.5876908838667 531.0454545454545 L 484.58769088374186 531.0454545454545 L 484.58769088374186 495.8377188726504 Z" stroke-linejoin="bevel" stroke-miterlimit="10"/><rect fill="#1f77b4" stroke="none" x="487.8185183626016" y="520.9542006287724" width="1.248281478183344e-10" height="10.091253916682149"/><path fill="none" stroke="#1f77b4" paint-order="fill stroke markers" d=" M 487.8185183626016 520.9542006287724 L 487.8185183627264 520.9542006287724 L 487.8185183627264 531.0454545454545 L 487.8185183626016 531.0454545454545 L 487.8185183626016 520.9542006287724 Z" stroke-linejoin="bevel" stroke-miterlimit="10"/><rect fill="#1f77b4" stroke="none" x="491.15704009075705" y="520.4283889753796" width="1.248281478183344e-10" height="10.617065570074942"/><path fill="none" stroke="#1f77b4" paint-order="fill stroke markers" d=" M 491.15704009075705 520.4283889753796 L 491.1570400908819 520.4283889753796 L 491.1570400908819 531.0454545454545 L 491.15704009075705 531.0454545454545 L 491.15704009075705 520.4283889753796 Z" stroke-linejoin="bevel" stroke-miterlimit="10"/><rect fill="#1f77b4" stroke="none" x="494.3878675696168" y="445.6522118084312" width="1.248281478183344e-10" height="85.39324273702329"/><path fill="none" stroke="#1f77b4" paint-order="fill stroke markers" d=" M 494.3878675696168 445.6522118084312 L 494.3878675697416 445.6522118084312 L 494.3878675697416 531.0454545454545 L 494.3878675696168 531.0454545454545 L 494.3878675696168 445.6522118084312 Z" stroke-linejoin="bevel" stroke-miterlimit="10"/><rect fill="#1f77b4" stroke="none" x="497.72638929777224" y="457.2089807522093" width="1.248281478183344e-10" height="73.8364737932452"/><path fill="none" stroke="#1f77b4" paint-order="fill stroke markers" d=" M 497.72638929777224 457.2089807522093 L 497.7263892978971 457.2089807522093 L 497.7263892978971 531.0454545454545 L 497.72638929777224 531.0454545454545 L 497.72638929777224 457.2089807522093 Z" stroke-linejoin="bevel" stroke-miterlimit="10"/><rect fill="#1f77b4" stroke="none" x="501.0649110259275" y="456.7037342307966" width="1.248281478183344e-10" height="74.34172031465789"/><path fill="none" stroke="#1f77b4" paint-order="fill stroke markers" d=" M 501.0649110259275 456.7037342307966 L 501.0649110260523 456.7037342307966 L 501.0649110260523 531.0454545454545 L 501.0649110259275 531.0454545454545 L 501.0649110259275 456.7037342307966 Z" stroke-linejoin="bevel" stroke-miterlimit="10"/><rect fill="#1f77b4" stroke="none" x="504.0803500061968" y="250.7467343964791" width="1.2460077414289117e-10" height="280.2987201489754"/><path fill="none" stroke="#1f77b4" paint-order="fill stroke markers" d=" M 504.0803500061968 250.7467343964791 L 504.0803500063214 250.7467343964791 L 504.0803500063214 531.0454545454545 L 504.0803500061968 531.0454545454545 L 504.0803500061968 250.7467343964791 Z" stroke-linejoin="bevel" stroke-miterlimit="10"/><rect fill="#1f77b4" stroke="none" x="507.418871734352" y="196.57990590151388" width="1.2460077414289117e-10" height="334.4655486439406"/><path fill="none" stroke="#1f77b4" paint-order="fill stroke markers" d=" M 507.418871734352 196.57990590151388 L 507.4188717344766 196.57990590151388 L 507.4188717344766 531.0454545454545 L 507.418871734352 531.0454545454545 L 507.418871734352 196.57990590151388 Z" stroke-linejoin="bevel" stroke-miterlimit="10"/><rect fill="#1f77b4" stroke="none" x="510.649699213212" y="189.15697952819284" width="1.2460077414289117e-10" height="341.88847501726167"/><path fill="none" stroke="#1f77b4" paint-order="fill stroke markers" d=" M 510.649699213212 189.15697952819284 L 510.6496992133366 189.15697952819284 L 510.6496992133366 531.0454545454545 L 510.649699213212 531.0454545454545 L 510.649699213212 189.15697952819284 Z" stroke-linejoin="bevel" stroke-miterlimit="10"/><rect fill="#1f77b4" stroke="none" x="513.9882209413672" y="179.19342288807684" width="1.2460077414289117e-10" height="351.85203165737767"/><path fill="none" stroke="#1f77b4" paint-order="fill stroke markers" d=" M 513.9882209413672 179.19342288807684 L 513.9882209414918 179.19342288807684 L 513.9882209414918 531.0454545454545 L 513.9882209413672 531.0454545454545 L 513.9882209413672 179.19342288807684 Z" stroke-linejoin="bevel" stroke-miterlimit="10"/><rect fill="#1f77b4" stroke="none" x="517.2190484202272" y="195.906292039236" width="1.2460077414289117e-10" height="335.1391625062185"/><path fill="none" stroke="#1f77b4" paint-order="fill stroke markers" d=" M 517.2190484202272 195.906292039236 L 517.2190484203518 195.906292039236 L 517.2190484203518 531.0454545454545 L 517.2190484202272 531.0454545454545 L 517.2190484202272 195.906292039236 Z" stroke-linejoin="bevel" stroke-miterlimit="10"/><rect fill="#1f77b4" stroke="none" x="520.5575701483824" y="250.36733595439796" width="1.2460077414289117e-10" height="280.67811859105655"/><path fill="none" stroke="#1f77b4" paint-order="fill stroke markers" d=" M 520.5575701483824 250.36733595439796 L 520.557570148507 250.36733595439796 L 520.557570148507 531.0454545454545 L 520.5575701483824 531.0454545454545 L 520.5575701483824 250.36733595439796 Z" stroke-linejoin="bevel" stroke-miterlimit="10"/><rect fill="#1f77b4" stroke="none" x="523.8960918765375" y="329.40737711663485" width="1.248281478183344e-10" height="201.63807742881966"/><path fill="none" stroke="#1f77b4" paint-order="fill stroke markers" d=" M 523.8960918765375 329.40737711663485 L 523.8960918766624 329.40737711663485 L 523.8960918766624 531.0454545454545 L 523.8960918765375 531.0454545454545 L 523.8960918765375 329.40737711663485 Z" stroke-linejoin="bevel" stroke-miterlimit="10"/><rect fill="#1f77b4" stroke="none" x="527.1269193553976" y="485.4176956907876" width="1.2460077414289117e-10" height="45.62775885466692"/><path fill="none" stroke="#1f77b4" paint-order="fill stroke markers" d=" M 527.1269193553976 485.4176956907876 L 527.1269193555222 485.4176956907876 L 527.1269193555222 531.0454545454545 L 527.1269193553976 531.0454545454545 L 527.1269193553976 485.4176956907876 Z" stroke-linejoin="bevel" stroke-miterlimit="10"/><rect fill="#1f77b4" stroke="none" x="530.4654410835527" y="342.9609919066085" width="1.248281478183344e-10" height="188.084462638846"/><path fill="none" stroke="#1f77b4" paint-order="fill stroke markers" d=" M 530.4654410835527 342.9609919066085 L 530.4654410836775 342.9609919066085 L 530.4654410836775 531.0454545454545 L 530.4654410835527 531.0454545454545 L 530.4654410835527 342.9609919066085 Z" stroke-linejoin="bevel" stroke-miterlimit="10"/><rect fill="#1f77b4" stroke="none" x="533.6962685624128" y="345.89446121281804" width="1.2460077414289117e-10" height="185.15099333263646"/><path fill="none" stroke="#1f77b4" paint-order="fill stroke markers" d=" M 533.6962685624128 345.89446121281804 L 533.6962685625374 345.89446121281804 L 533.6962685625374 531.0454545454545 L 533.6962685624128 531.0454545454545 L 533.6962685624128 345.89446121281804 Z" stroke-linejoin="bevel" stroke-miterlimit="10"/><rect fill="#1f77b4" stroke="none" x="537.0347902905679" y="411.7874611186414" width="1.248281478183344e-10" height="119.25799342681313"/><path fill="none" stroke="#1f77b4" paint-order="fill stroke markers" d=" M 537.0347902905679 411.7874611186414 L 537.0347902906927 411.7874611186414 L 537.0347902906927 531.0454545454545 L 537.0347902905679 531.0454545454545 L 537.0347902905679 411.7874611186414 Z" stroke-linejoin="bevel" stroke-miterlimit="10"/><rect fill="#1f77b4" stroke="none" x="540.3733120187231" y="51.95454545454555" width="1.248281478183344e-10" height="479.09090909090895"/><path fill="none" stroke="#1f77b4" paint-order="fill stroke markers" d=" M 540.3733120187231 51.95454545454555 L 540.373312018848 51.95454545454555 L 540.373312018848 531.0454545454545 L 540.3733120187231 531.0454545454545 L 540.3733120187231 51.95454545454555 Z" stroke-linejoin="bevel" stroke-miterlimit="10"/><rect fill="#1f77b4" stroke="none" x="543.3887509989926" y="385.5924546721488" width="1.248281478183344e-10" height="145.4529998733057"/><path fill="none" stroke="#1f77b4" paint-order="fill stroke markers" d=" M 543.3887509989926 385.5924546721488 L 543.3887509991174 385.5924546721488 L 543.3887509991174 531.0454545454545 L 543.3887509989926 531.0454545454545 L 543.3887509989926 385.5924546721488 Z" stroke-linejoin="bevel" stroke-miterlimit="10"/><rect fill="#1f77b4" stroke="none" x="546.7272727271478" y="337.5507643641138" width="1.248281478183344e-10" height="193.49469018134073"/><path fill="none" stroke="#1f77b4" paint-order="fill stroke markers" d=" M 546.7272727271478 337.5507643641138 L 546.7272727272726 337.5507643641138 L 546.7272727272726 531.0454545454545 L 546.7272727271478 531.0454545454545 L 546.7272727271478 337.5507643641138 Z" stroke-linejoin="bevel" stroke-miterlimit="10"/></g></g></g><g><g fill="#444444"><path fill="" stroke="none" d=""/><g transform="translate(58,23)"><path fill="none" stroke="none"/><text fill="" stroke="none" font-family="helvetica" font-size="10pt" font-style="normal" font-weight="bold" text-decoration="normal" x="0" y="0" text-anchor="start" dominant-baseline="text-after-edge">MB of Pics per month</text></g></g></g><g><g fill="#444444"><path fill="none" stroke="black" paint-order="fill stroke markers" d=" M 58 555 L 570 555" stroke-linejoin="bevel" stroke-miterlimit="10"/><path fill="none" stroke="black" paint-order="fill stroke markers" d=" M 104 561 L 104 553" stroke-linejoin="bevel" stroke-miterlimit="10"/><path fill="none" stroke="black" paint-order="fill stroke markers" d=" M 183 561 L 183 553" stroke-linejoin="bevel" stroke-miterlimit="10"/><path fill="none" stroke="black" paint-order="fill stroke markers" d=" M 262 561 L 262 553" stroke-linejoin="bevel" stroke-miterlimit="10"/><path fill="none" stroke="black" paint-order="fill stroke markers" d=" M 340 561 L 340 553" stroke-linejoin="bevel" stroke-miterlimit="10"/><path fill="none" stroke="black" paint-order="fill stroke markers" d=" M 419 561 L 419 553" stroke-linejoin="bevel" stroke-miterlimit="10"/><path fill="" stroke="black" paint-order="fill stroke markers" d=" M 498 561 L 498 553" stroke-linejoin="bevel" stroke-miterlimit="10"/><g transform="translate(104,566) rotate(0,0,0)"><text fill="" stroke="none" font-family="helvetica" font-size="8pt" font-style="normal" font-weight="normal" text-decoration="normal" x="0" y="0" text-anchor="middle" dominant-baseline="hanging">2008</text><g transform="rotate(0,0,0) translate(-104,-566) translate(183,566) rotate(0,0,0)"><text fill="" stroke="none" font-family="helvetica" font-size="8pt" font-style="normal" font-weight="normal" text-decoration="normal" x="0" y="0" text-anchor="middle" dominant-baseline="hanging">2010</text><g transform="rotate(0,0,0) translate(-183,-566) translate(262,566) rotate(0,0,0)"><text fill="" stroke="none" font-family="helvetica" font-size="8pt" font-style="normal" font-weight="normal" text-decoration="normal" x="0" y="0" text-anchor="middle" dominant-baseline="hanging">2012</text><g transform="rotate(0,0,0) translate(-262,-566) translate(340,566) rotate(0,0,0)"><text fill="" stroke="none" font-family="helvetica" font-size="8pt" font-style="normal" font-weight="normal" text-decoration="normal" x="0" y="0" text-anchor="middle" dominant-baseline="hanging">2014</text><g transform="rotate(0,0,0) translate(-340,-566) translate(419,566) rotate(0,0,0)"><text fill="" stroke="none" font-family="helvetica" font-size="8pt" font-style="normal" font-weight="normal" text-decoration="normal" x="0" y="0" text-anchor="middle" dominant-baseline="hanging">2016</text><g transform="rotate(0,0,0) translate(-419,-566) translate(498,566) rotate(0,0,0)"><text fill="" stroke="none" font-family="helvetica" font-size="8pt" font-style="normal" font-weight="normal" text-decoration="normal" x="0" y="0" text-anchor="middle" dominant-baseline="hanging">2018</text><g transform="rotate(0,0,0) translate(-498,-566) translate(314,584) rotate(0,0,0)"><text fill="" stroke="none" font-family="helvetica" font-size="10pt" font-style="italic" font-weight="normal" text-decoration="normal" x="0" y="0" text-anchor="middle" dominant-baseline="hanging">Time</text><g transform="rotate(0,0,0) translate(-314,-584)"/></g></g></g></g></g></g></g></g><g fill="#444444"><path fill="none" stroke="black" paint-order="fill stroke markers" d=" M 58 555 L 58 28" stroke-linejoin="bevel" stroke-miterlimit="10"/><path fill="none" stroke="black" paint-order="fill stroke markers" d=" M 52 531 L 60 531" stroke-linejoin="bevel" stroke-miterlimit="10"/><path fill="none" stroke="black" paint-order="fill stroke markers" d=" M 52 418 L 60 418" stroke-linejoin="bevel" stroke-miterlimit="10"/><path fill="none" stroke="black" paint-order="fill stroke markers" d=" M 52 305 L 60 305" stroke-linejoin="bevel" stroke-miterlimit="10"/><path fill="none" stroke="black" paint-order="fill stroke markers" d=" M 52 192 L 60 192" stroke-linejoin="bevel" stroke-miterlimit="10"/><path fill="none" stroke="black" paint-order="fill stroke markers" d=" M 52 79 L 60 79" stroke-linejoin="bevel" stroke-miterlimit="10"/><path fill="none" stroke="black" paint-order="fill stroke markers" d=" M 54 554 L 58 554" stroke-linejoin="bevel" stroke-miterlimit="10"/><path fill="none" stroke="black" paint-order="fill stroke markers" d=" M 54 531 L 58 531" stroke-linejoin="bevel" stroke-miterlimit="10"/><path fill="none" stroke="black" paint-order="fill stroke markers" d=" M 54 508 L 58 508" stroke-linejoin="bevel" stroke-miterlimit="10"/><path fill="none" stroke="black" paint-order="fill stroke markers" d=" M 54 486 L 58 486" stroke-linejoin="bevel" stroke-miterlimit="10"/><path fill="none" stroke="black" paint-order="fill stroke markers" d=" M 54 463 L 58 463" stroke-linejoin="bevel" stroke-miterlimit="10"/><path fill="none" stroke="black" paint-order="fill stroke markers" d=" M 54 441 L 58 441" stroke-linejoin="bevel" stroke-miterlimit="10"/><path fill="none" stroke="black" paint-order="fill stroke markers" d=" M 54 418 L 58 418" stroke-linejoin="bevel" stroke-miterlimit="10"/><path fill="none" stroke="black" paint-order="fill stroke markers" d=" M 54 396 L 58 396" stroke-linejoin="bevel" stroke-miterlimit="10"/><path fill="none" stroke="black" paint-order="fill stroke markers" d=" M 54 373 L 58 373" stroke-linejoin="bevel" stroke-miterlimit="10"/><path fill="none" stroke="black" paint-order="fill stroke markers" d=" M 54 350 L 58 350" stroke-linejoin="bevel" stroke-miterlimit="10"/><path fill="none" stroke="black" paint-order="fill stroke markers" d=" M 54 328 L 58 328" stroke-linejoin="bevel" stroke-miterlimit="10"/><path fill="none" stroke="black" paint-order="fill stroke markers" d=" M 54 305 L 58 305" stroke-linejoin="bevel" stroke-miterlimit="10"/><path fill="none" stroke="black" paint-order="fill stroke markers" d=" M 54 283 L 58 283" stroke-linejoin="bevel" stroke-miterlimit="10"/><path fill="none" stroke="black" paint-order="fill stroke markers" d=" M 54 260 L 58 260" stroke-linejoin="bevel" stroke-miterlimit="10"/><path fill="none" stroke="black" paint-order="fill stroke markers" d=" M 54 237 L 58 237" stroke-linejoin="bevel" stroke-miterlimit="10"/><path fill="none" stroke="black" paint-order="fill stroke markers" d=" M 54 215 L 58 215" stroke-linejoin="bevel" stroke-miterlimit="10"/><path fill="none" stroke="black" paint-order="fill stroke markers" d=" M 54 192 L 58 192" stroke-linejoin="bevel" stroke-miterlimit="10"/><path fill="none" stroke="black" paint-order="fill stroke markers" d=" M 54 170 L 58 170" stroke-linejoin="bevel" stroke-miterlimit="10"/><path fill="none" stroke="black" paint-order="fill stroke markers" d=" M 54 147 L 58 147" stroke-linejoin="bevel" stroke-miterlimit="10"/><path fill="none" stroke="black" paint-order="fill stroke markers" d=" M 54 125 L 58 125" stroke-linejoin="bevel" stroke-miterlimit="10"/><path fill="none" stroke="black" paint-order="fill stroke markers" d=" M 54 102 L 58 102" stroke-linejoin="bevel" stroke-miterlimit="10"/><path fill="none" stroke="black" paint-order="fill stroke markers" d=" M 54 79 L 58 79" stroke-linejoin="bevel" stroke-miterlimit="10"/><path fill="none" stroke="black" paint-order="fill stroke markers" d=" M 54 57 L 58 57" stroke-linejoin="bevel" stroke-miterlimit="10"/><path fill="" stroke="black" paint-order="fill stroke markers" d=" M 54 34 L 58 34" stroke-linejoin="bevel" stroke-miterlimit="10"/><g transform="translate(47,531) rotate(0,0,0)"><text fill="" stroke="none" font-family="helvetica" font-size="8pt" font-style="normal" font-weight="normal" text-decoration="normal" x="0" y="0" text-anchor="end" dominant-baseline="central">0</text><g transform="rotate(0,0,0) translate(-47,-531) translate(47,418) rotate(0,0,0)"><text fill="" stroke="none" font-family="helvetica" font-size="8pt" font-style="normal" font-weight="normal" text-decoration="normal" x="0" y="0" text-anchor="end" dominant-baseline="central">2000</text><g transform="rotate(0,0,0) translate(-47,-418) translate(47,305) rotate(0,0,0)"><text fill="" stroke="none" font-family="helvetica" font-size="8pt" font-style="normal" font-weight="normal" text-decoration="normal" x="0" y="0" text-anchor="end" dominant-baseline="central">4000</text><g transform="rotate(0,0,0) translate(-47,-305) translate(47,192) rotate(0,0,0)"><text fill="" stroke="none" font-family="helvetica" font-size="8pt" font-style="normal" font-weight="normal" text-decoration="normal" x="0" y="0" text-anchor="end" dominant-baseline="central">6000</text><g transform="rotate(0,0,0) translate(-47,-192) translate(47,79) rotate(0,0,0)"><text fill="" stroke="none" font-family="helvetica" font-size="8pt" font-style="normal" font-weight="normal" text-decoration="normal" x="0" y="0" text-anchor="end" dominant-baseline="central">8000</text><g transform="rotate(0,0,0) translate(-47,-79) translate(15,292) rotate(-90,0,0)"><text fill="" stroke="none" font-family="helvetica" font-size="10pt" font-style="italic" font-weight="normal" text-decoration="normal" x="0" y="0" text-anchor="middle" dominant-baseline="alphabetic">Total size in MB</text><g transform="rotate(90,0,0) translate(-15,-292)"/></g></g></g></g></g></g></g><g clip-path="url(#CoGXxyLfomhW)"><g/></g></g></g></g></svg>